<?xml version="1.0" encoding="UTF-8"?>
<svg xmlns="http://www.w3.org/2000/svg" xmlns:xlink="http://www.w3.org/1999/xlink" version="1.1" viewBox="0 0 372 115">
  <defs>
    <style>
      .cls-1 {
        fill: none;
      }

      .cls-2 {
        fill: #fff;
      }

      .cls-3 {
        clip-path: url(#clippath);
      }
    </style>
    <clipPath id="clippath">
      <rect class="cls-1" width="370.5" height="114.7"/>
    </clipPath>
  </defs>
  <!-- Generator: Adobe Illustrator 28.7.1, SVG Export Plug-In . SVG Version: 1.2.0 Build 142)  -->
  <g>
    <g id="Calque_1">
      <g class="cls-3">
        <polygon class="cls-2" points="141.9 84.6 141.9 91.7 147.2 91.7 147.2 95.2 141.9 95.2 141.9 106.1 138.1 106.1 138.1 81.1 148.5 81.1 148.5 84.6 141.9 84.6"/>
        <polygon class="cls-2" points="154.8 84.6 154.8 91.7 160.3 91.7 160.3 95.2 154.8 95.2 154.8 102.6 161.6 102.6 161.6 106.1 151 106.1 151 81.1 161.7 81.1 161.7 84.6 154.8 84.6"/>
        <path class="cls-2" d="M175,86.5v.7s-3.6.4-3.6.4v-.8c0-1.7-.6-2.5-2-2.5-1.1,0-1.9.6-1.9,2v.5c0,1.4.7,2.5,3.2,4.8,3.3,3.1,4.5,5.1,4.5,8v1.2c0,3.7-2.3,5.6-5.8,5.6-3.5,0-5.8-2-5.8-5.7v-1.6s3.6-.4,3.6-.4v1.7c0,1.7.8,2.5,2.1,2.5,1.1,0,2.1-.6,2.1-2.4v-.8c0-1.6-.7-2.7-3.2-5-3.3-3.1-4.5-5.1-4.5-7.8v-.6c0-3.7,2.1-5.6,5.6-5.6,3.5,0,5.6,2,5.6,5.7"/>
        <polygon class="cls-2" points="183.7 84.7 183.6 106.1 179.9 106.1 179.9 84.7 175.8 84.7 175.8 81.2 187.7 81.2 187.7 84.7 183.7 84.7"/>
        <rect class="cls-2" x="190.1" y="81.2" width="3.8" height="25"/>
        <polygon class="cls-2" points="200.8 106.1 196.6 81.2 200.4 81.2 203.2 100.2 203.3 100.2 206.1 81.2 209.9 81.2 205.6 106.1 200.8 106.1"/>
        <path class="cls-2" d="M219.9,106.1l-.8-5.7h-4.2s-.8,5.7-.8,5.7h-3.8s4.3-25,4.3-25h4.8s4.3,25,4.3,25h-3.9ZM215.4,97.1h3.2s-1.5-10.5-1.5-10.5h-.1l-1.5,10.5Z"/>
        <polygon class="cls-2" points="236.6 102.6 236.6 106.2 226.5 106.2 226.5 81.2 230.3 81.2 230.3 102.6 236.6 102.6"/>
        <path class="cls-2" d="M12.9,11.5c8.7,0,13.4,4.9,13.4,14.1v1c0,6.2-1.8,9.9-6.3,11.4v.2c5.2,1.6,7.5,5.7,7.5,13v1.9c0,9.1-4.9,14.1-14,14.1H1.2s0-55.6,0-55.6h11.8ZM9.6,34.5h2.6c4.1,0,5.7-2.1,5.7-6.8v-1.8c0-4.5-1.7-6.6-5.3-6.6h-3s0,15.2,0,15.2ZM9.6,59.3h3.7c4.1,0,5.9-2.2,5.9-6.8v-3.1c0-4.9-1.8-7.1-6.3-7.1h-3.3s0,17.1,0,17.1Z"/>
        <path class="cls-2" d="M52.6,67.1l-1.8-12.6h-9.3s-1.8,12.6-1.8,12.6h-8.4s9.6-55.6,9.6-55.6h10.7s9.7,55.6,9.7,55.6h-8.6ZM42.6,46.8h7.1s-3.4-23.4-3.4-23.4h-.2l-3.4,23.4Z"/>
        <polygon class="cls-2" points="89.7 59.1 89.7 67 67.2 67.1 67.2 11.4 75.6 11.4 75.7 59.1 89.7 59.1"/>
        <polygon class="cls-2" points="103.5 19.2 103.5 34.9 115.8 34.9 115.9 42.7 103.5 42.7 103.6 59.2 118.8 59.2 118.8 67 95.1 67 95.1 11.4 118.8 11.4 118.8 19.2 103.5 19.2"/>
        <rect class="cls-2" x="125.9" y="11.4" width="8.4" height="55.6"/>
        <polygon class="cls-2" points="162.6 67 151.5 30.1 151.4 30.1 151.4 67 143.4 67 143.4 11.4 152.8 11.4 162.7 44.5 162.9 44.5 162.9 11.4 170.8 11.3 170.9 67 162.6 67"/>
        <polygon class="cls-2" points="188.3 19.1 188.3 34.8 200.6 34.8 200.6 42.6 188.3 42.6 188.3 59.2 203.6 59.2 203.6 66.9 179.9 67 179.9 11.3 203.5 11.3 203.6 19.1 188.3 19.1"/>
        <polygon class="cls-2" points="217.1 66.9 207.7 11.3 216.3 11.3 222.6 53.7 222.7 53.7 228.9 11.3 237.3 11.3 228 66.9 217.1 66.9"/>
        <path class="cls-2" d="M271.8,31.4c-1.8.5-1.2,1.9-.6,2.6.6.7,4.7,5.2,5.9,6.2,1.1,1.1,1.3,1.3,3,.6,1.7-.7,5-2.2,6.4-2.8.7-.3.8-.1,2.2-.1s15.8.4,17.3.4,2.2-.2,1.2-1c-.9-.8-17.4-16.2-18.6-17.3-1.2-1.1-1.6-1.6-2.5-.3-.9,1.3-4.4,6.8-4.4,6.8-.5.8-1.2,1.8-2,2.1-3,1.1-7.7,2.6-7.7,2.6"/>
        <path class="cls-2" d="M298.1,15.5c2.3-.1,4.7,0,7.1.3,2.4.4,4.7,1,6.9,2.3.5.3,1.1.7,1.6,1.1.3.2.5.4.7.7.2.2.4.4.7.7.9,1,1.6,2.1,2.1,3.5.5,1.3.6,2.7.5,4,0,.7,0,1.3-.2,1.9-.1.6,0,1.3-.6,1.8-.5.4-1.2.4-1.6-.1,0,0-.1-.2-.2-.2h0c-.3-.7,0-1.2,0-1.8,0-.6.1-1.1.2-1.7,0-1.1,0-2.1-.4-3.1-.3-1-.8-1.8-1.5-2.6-.2-.2-.3-.4-.5-.6-.2-.2-.4-.4-.6-.5-.4-.3-.8-.6-1.3-.9-1.8-1.1-4-1.8-6.1-2.2-2.2-.4-4.4-.5-6.7-.5-.5,0-.9-.4-.9-1,0-.5.4-1,.9-1h0Z"/>
        <path class="cls-2" d="M296.7,18.5c1.9,0,3.8,0,5.7.4,1.9.3,3.8.9,5.6,1.9.9.5,1.7,1.2,2.4,2,.7.8,1.2,1.8,1.6,2.8.3,1,.5,2.2.4,3.3,0,1.1-.4,2.2-.9,3.2-.3.5-.8.6-1.3.3-.4-.3-.6-.8-.4-1.3.7-1.5.9-3.3.4-4.9-.3-.8-.7-1.6-1.2-2.2-.5-.6-1.2-1.2-1.9-1.6-1.5-.9-3.2-1.4-5-1.7-1.8-.3-3.6-.4-5.4-.3-.5,0-.9-.4-1-.9,0-.5.4-1,.9-1,0,0,0,0,0,0h0Z"/>
        <path class="cls-2" d="M294.9,21.7c1.4,0,2.8-.1,4.3,0,1.4.2,2.9.4,4.4,1.2.4.2.7.4,1,.7.3.2.6.5.9.9.6.6,1,1.4,1.3,2.3.5,1.7.3,3.5-.3,4.9-.2.5-.7.7-1.2.5-.4-.2-.6-.6-.6-1h0c.1-1.4.3-2.7,0-3.7-.2-.5-.4-1-.8-1.4-.2-.2-.4-.4-.6-.6-.2-.2-.5-.3-.7-.5-1-.6-2.3-.9-3.6-1.1-1.3-.2-2.6-.2-4-.2-.5,0-.9-.4-.9-1,0-.5.4-.9.9-1h0Z"/>
        <path class="cls-2" d="M369.4,56.3c2.2,5.2,1.5,8.6-3.7,12.5-5.2,3.9-31.4,21.1-46.9,30.9-15.5,9.8-26.1,18.1-38.1.3-12-17.8-27.6-39.7-30.3-43.7-2.7-4-2.2-6.6-1.2-9.7.9-3.1,3.2-15.1,3.4-17.6.2-2.5.8-5.8,7.2-7.5,6.4-1.8,34-10.7,49.7-18.3,2.6-1,6.2-2.7,10.6.6,4.4,3.3,30.8,20,34.5,22.3,3.7,2.3,4.4,3.6,5.1,5.7.7,2.2,7.6,19.3,9.8,24.5M364.8,63.5c3.2-3.1,2.2-4.8.5-9-1.7-4.1-7.7-18.5-8.4-20-.7-1.5-.3-3-3.7-5.3-3.4-2.3-29.8-20.7-32.5-22.8-2.7-2.1-3.3-2.4-5.7-2.4s-3.9.6-5.1,1.1c-3,1.5-31.5,13.6-39.2,16-7.7,2.3-7.8,2.4-9.3,3-1.5.6-4.4,1.1-5.2,5.4-.8,4.3-3.8,16.4-4.2,17.7-.4,1.3-.8,2.7,1.2,6.1,2.6,4,30.4,43.2,34,47,3.6,3.8,8,7.9,19.6.9,11.6-7,54.8-34.7,57.9-37.8"/>
        <path class="cls-2" d="M260.5,27.7c-.7,1-.5,1.5,0,2.3.6.8,24.6,28.1,27.8,31.9,3.2,3.9,7.9,3,11.5,1.2,1.7-.9,13-6,24.1-11.8,12.6-6.7,24.9-14.2,26.3-15.2,1.4-1,2.7-1.4,1.9-3.2-.7-1.8,1.2-2.6,1.7-1.4.6,1.2.8,4.1-1.6,6-2.4,1.9-43.1,25.8-48.4,28.5-5.3,2.7-12,6.4-16.9.4-5-6-25.2-31.4-27.4-34.3-2.2-2.9-1.8-3.8-1-5,.7-1.1,2.6-.3,2,.7"/>
      </g>
    </g>
  </g>
</svg>