<?xml version="1.0" encoding="UTF-8"?>
<svg xmlns="http://www.w3.org/2000/svg" version="1.1" viewBox="0 0 121.3 107.8">
  <defs>
    <style>
      .cls-1 {
        fill: #fff;
      }
    </style>
  </defs>
  <!-- Generator: Adobe Illustrator 28.7.1, SVG Export Plug-In . SVG Version: 1.2.0 Build 142)  -->
  <g>
    <g id="Calque_2">
      <g id="logos">
        <path class="cls-1" d="M23.3,29.3c-1.8.5-1.2,1.9-.6,2.6.6.7,4.7,5.1,5.8,6.2,1.1,1.1,1.3,1.3,3,.6,1.7-.7,5-2.1,6.3-2.8.7-.3.8-.1,2.1-.1s15.7.4,17.1.4,2.1-.2,1.2-1c-.9-.7-17.2-16.1-18.5-17.2-1.2-1.1-1.6-1.6-2.4-.3-.9,1.3-4.4,6.8-4.4,6.8-.5.8-1.2,1.8-2,2.1-3,1.1-7.7,2.6-7.7,2.6"/>
        <path class="cls-1" d="M49.4,13.5c2.3-.1,4.7,0,7,.3,2.3.4,4.7,1,6.9,2.2.5.3,1.1.7,1.6,1.1.3.2.5.4.7.7.2.2.4.4.7.7.9,1,1.6,2.1,2.1,3.4.5,1.3.6,2.7.5,4,0,.7,0,1.3-.2,1.9-.1.6,0,1.3-.6,1.8-.5.4-1.2.4-1.6-.1,0,0-.1-.2-.2-.2h0c-.3-.7,0-1.2,0-1.8,0-.6.1-1.1.2-1.7,0-1.1,0-2.1-.4-3.1-.3-.9-.8-1.8-1.5-2.6-.2-.2-.3-.4-.5-.6-.2-.2-.4-.4-.6-.5-.4-.3-.8-.6-1.3-.9-1.8-1.1-3.9-1.8-6.1-2.2-2.2-.4-4.4-.5-6.7-.5-.5,0-.9-.4-.9-.9,0-.5.4-.9.9-1h0,0Z"/>
        <path class="cls-1" d="M48,16.4c1.9,0,3.8,0,5.7.4,1.9.3,3.8.9,5.5,1.9.9.5,1.7,1.2,2.4,2,.7.8,1.2,1.8,1.6,2.8.3,1,.5,2.2.4,3.3,0,1.1-.4,2.2-.9,3.1-.3.5-.8.6-1.3.3-.4-.3-.6-.8-.4-1.3.7-1.5.9-3.2.4-4.8-.3-.8-.7-1.5-1.2-2.2-.5-.6-1.2-1.2-1.9-1.6-1.5-.9-3.2-1.4-4.9-1.7-1.8-.3-3.5-.4-5.3-.3-.5,0-.9-.4-1-.9,0-.5.4-1,.9-1,0,0,0,0,0,0h0,0Z"/>
        <path class="cls-1" d="M46.3,19.6c1.4,0,2.8-.1,4.3,0,1.4.2,2.9.4,4.4,1.2.4.2.7.4,1,.7.3.2.6.5.9.9.6.6,1,1.4,1.3,2.3.5,1.7.3,3.5-.3,4.9-.2.5-.7.7-1.2.5-.4-.2-.6-.6-.6-1h0c.1-1.4.3-2.7,0-3.7-.2-.5-.4-1-.8-1.4-.2-.2-.4-.4-.6-.6-.2-.2-.5-.3-.7-.5-1-.6-2.3-.9-3.6-1.1-1.3-.2-2.6-.2-4-.2-.5,0-.9-.4-.9-1,0-.5.4-.9.9-1h0,0Z"/>
        <path class="cls-1" d="M120.2,54c2.1,5.1,1.5,8.6-3.7,12.4-5.2,3.8-31.2,21-46.6,30.7-15.4,9.7-25.9,18-37.8.3C20.1,79.8,4.6,58,2,54c-2.7-4-2.1-6.5-1.2-9.6.9-3.1,3.2-15,3.4-17.4.2-2.5.8-5.7,7.1-7.5,6.3-1.7,33.8-10.6,49.4-18.2,2.6-.9,6.1-2.7,10.5.6,4.4,3.3,30.6,19.9,34.3,22.1,3.7,2.2,4.4,3.5,5.1,5.7.7,2.1,7.5,19.1,9.7,24.3M115.6,61.2c3.1-3,2.1-4.8.5-8.9-1.7-4.1-7.6-18.4-8.3-19.8-.7-1.4-.3-3-3.7-5.2-3.4-2.2-29.6-20.5-32.3-22.6-2.7-2.1-3.3-2.4-5.7-2.4s-3.9.6-5,1.1c-3,1.5-31.3,13.6-38.9,15.9-7.6,2.3-7.7,2.4-9.3,3-1.5.6-4.4,1.1-5.1,5.4-.8,4.3-3.8,16.3-4.1,17.6-.3,1.3-.8,2.7,1.1,6,2.6,4,30.2,42.9,33.8,46.7,3.6,3.8,8,7.9,19.5.9,11.6-7,54.4-34.5,57.5-37.5"/>
        <path class="cls-1" d="M12,25.6c-.7,1-.5,1.5,0,2.3.5.8,24.4,27.9,27.6,31.7,3.2,3.8,7.9,3,11.4,1.1,1.7-.9,12.9-5.9,23.9-11.8,12.5-6.6,24.7-14.1,26.1-15.1,1.4-.9,2.6-1.3,1.9-3.2-.7-1.8,1.2-2.6,1.7-1.4.5,1.1.8,4-1.6,5.9-2.4,1.9-42.8,25.6-48.1,28.3-5.3,2.7-11.9,6.3-16.8.4-4.9-5.9-25-31.1-27.2-34-2.2-2.9-1.8-3.8-1-5,.7-1.1,2.6-.3,1.9.6"/>
      </g>
    </g>
  </g>
</svg>