<?xml version="1.0" encoding="UTF-8"?>
<svg xmlns="http://www.w3.org/2000/svg" xmlns:xlink="http://www.w3.org/1999/xlink" version="1.1" viewBox="0 0 169 169">
  <defs>
    <style>
      .cls-1 {
        fill: none;
        opacity: .4;
        stroke: #fff;
        stroke-miterlimit: 10;
      }

      .cls-2 {
        fill: url(#linear-gradient);
      }
    </style>
    <linearGradient id="linear-gradient" x1="149.8" y1="47" x2="2.9" y2="131.8" gradientUnits="userSpaceOnUse">
      <stop offset="0" stop-color="#784880"/>
      <stop offset=".3" stop-color="#92638f"/>
      <stop offset=".9" stop-color="#d6aab5"/>
      <stop offset="1" stop-color="#e7bbbf"/>
    </linearGradient>
  </defs>
  <!-- Generator: Adobe Illustrator 28.7.1, SVG Export Plug-In . SVG Version: 1.2.0 Build 142)  -->
  <g>
    <g id="Calque_1">
      <g>
        <circle class="cls-2" cx="84.6" cy="84.6" r="84.6"/>
        <path class="cls-1" d="M153,79.2c4.5-5.8,8.7-13.1,6.3-20.1-1-2.9-3.1-5.3-5.1-7.6-9.8-11.3-20.1-22.9-33.5-29.3-15.8-7.6-34-7.3-51.5-6.7-2.9,0-5.9.2-8.7,1.1-3.1,1-5.8,3.1-8.4,5.1-11.3,8.9-21.8,18.8-31.5,29.5-2.1,2.4-4.3,4.9-5.4,7.9s-.9,6.7,1.3,9c3.3,3.5,9,2.5,13.5,1,13.9-4.6,26.8-11.5,39.3-19,5.2-3.1,10.6-6.5,16.6-7.5,1.5-.3,3.1-.4,4.5.1,1.3.5,2.3,1.4,3.4,2.2,13.7,12,25.3,26.4,34.2,42.3,1.2,2.2,2.5,4.6,4.6,6,8,5.3,16.5-9.2,20.3-14.1Z"/>
        <path class="cls-1" d="M106.2,28.8c-15.6-6-34.3-3-47.3,7.5-3.4,2.7-6.3,5.9-9.3,9-8.1,8.7-16.3,17.7-21.8,28.3-4.8,9.3-7.4,21.1-1.8,29.9,2.1,3.3,5.8,6.1,9.7,5.4,3.2-.6,5.5-3.3,7.5-5.8,4-5.1,8.1-10.2,12.1-15.3,4.6-5.9,10.4-12.3,17.8-12.3,3.1,0,6,1.1,9,1.9,6.8,1.8,13.9,1.6,20.9,1.5,2.2,0,4.5,0,6.7-.8,7.4-2.5,29.9-14.5,27-24.5-3-10.1-21.2-21.8-30.6-25Z"/>
      </g>
    </g>
  </g>
</svg>