<?xml version="1.0" encoding="UTF-8"?>
<svg xmlns="http://www.w3.org/2000/svg" xmlns:xlink="http://www.w3.org/1999/xlink" version="1.1" viewBox="0 0 169 169">
  <defs>
    <style>
      .cls-1 {
        fill: none;
        opacity: .4;
        stroke: #fff;
        stroke-miterlimit: 10;
      }

      .cls-2 {
        fill: url(#linear-gradient);
      }
    </style>
    <linearGradient id="linear-gradient" x1="1.7" y1="72.2" x2="169.1" y2="97.1" gradientUnits="userSpaceOnUse">
      <stop offset="0" stop-color="#d47a9b"/>
      <stop offset=".3" stop-color="#9c6a90"/>
      <stop offset=".6" stop-color="#6b5c87"/>
      <stop offset=".8" stop-color="#4c5482"/>
      <stop offset=".9" stop-color="#415180"/>
    </linearGradient>
  </defs>
  <!-- Generator: Adobe Illustrator 28.7.1, SVG Export Plug-In . SVG Version: 1.2.0 Build 142)  -->
  <g>
    <g id="Calque_1">
      <g>
        <circle class="cls-2" cx="84.5" cy="84.5" r="84.6"/>
        <path class="cls-1" d="M39.2,32.8s-13.1,4.9-21.1,33.5-.9,39.3,1.8,46.3c0,0,2.5,6.8,11,15.6s11.7,5.5,10.1-1.4c-2.9-12.3,1.3-18,11.5-33.9,8.9-14,18-26.3,13.9-37.9-4.4-12.4-10.2-29.9-27.2-22.1Z"/>
        <path class="cls-1" d="M44.7,20.3s-18.3,5.9-29.4,40.9c-8.8,27.7-1.3,48,2.6,56.5,0,0,3.5,8.3,15.3,19,13.5,12.3,16.3,6.7,14.1-1.7-4-15,1.9-21.9,16-41.4,12.4-17.1,25.1-32.1,19.3-46.3-6.1-15.1-14.2-36.5-37.9-27Z"/>
      </g>
    </g>
  </g>
</svg>