<?xml version="1.0" encoding="UTF-8"?>
<svg xmlns="http://www.w3.org/2000/svg" xmlns:xlink="http://www.w3.org/1999/xlink" version="1.1" viewBox="0 0 169 169">
  <defs>
    <style>
      .cls-1 {
        fill: url(#linear-gradient);
      }

      .cls-2 {
        stroke-width: .8px;
      }

      .cls-2, .cls-3 {
        fill: none;
        opacity: .3;
        stroke: #fff;
        stroke-miterlimit: 10;
      }
    </style>
    <linearGradient id="linear-gradient" x1="274" y1="-23.9" x2="424.8" y2="-101.4" gradientTransform="translate(-184.9 301.4) rotate(-29.1)" gradientUnits="userSpaceOnUse">
      <stop offset="0" stop-color="#e7bbbf"/>
      <stop offset="1" stop-color="#be436a"/>
    </linearGradient>
  </defs>
  <!-- Generator: Adobe Illustrator 28.7.1, SVG Export Plug-In . SVG Version: 1.2.0 Build 142)  -->
  <g>
    <g id="Calque_1">
      <g>
        <circle class="cls-1" cx="84.6" cy="84.6" r="84.6"/>
        <path class="cls-2" d="M153.8,44.2c21.8,39.2,7.8,88.7-31.5,110.5-39.2,21.8-88.7,7.8-110.5-31.5C-10,84.1,4.1,34.6,43.3,12.8c38-21.2,89.3-6.6,110.5,31.5Z"/>
        <path class="cls-3" d="M135.4,32.2c7.2-1.3,23.4,26.2,19.1,55.6-2.5,17.3-9.2,33.6-17.8,48.8-1.4,2.6-2.9,5.1-5,7.2-2.4,2.3-5.4,3.7-8.4,5.1-13.1,5.9-26.8,10.7-40.7,14.3-3.1.8-6.3,1.5-9.5,1.1-3.2-.4-6.3-2.3-7.4-5.3-1.6-4.5-5-12.9-1.5-16.2,10.5-10.2,21.6-6.5,35-12.2,7.7-3.3,19.1-12.1,22.7-17,5.5-7.5-1.4-8.5,5.5-21.9,8.3-16.2-17.5-21.1-24.6-37.9s2.9-23.3,13.1-30.9c12.9-9.6,13.5,10.4,19.6,9.3Z"/>
        <path class="cls-3" d="M141.9,97.6c-1.9,16.6-13.2,31.8-28.5,38.4-4,1.7-8.1,2.9-12.3,4-11.5,3.2-23.2,6.3-35.1,6.3-10.5,0-22.1-3.2-27.3-12.3-2-3.4-2.7-8-.3-11.1,2-2.6,5.4-3.3,8.6-3.9,6.4-1.2,12.8-2.5,19.1-3.7,7.3-1.4,15.7-3.5,19.1-10.2,1.4-2.7,1.5-10.3,2.2-13.3,1.6-6.8,9.7-5.7,13.1-11.8s.7-9.6,5.3-14,20.7-14.2,28.1-7c7.6,7.3,9.6,28.9,8,38.6Z"/>
      </g>
    </g>
  </g>
</svg>