<?xml version="1.0" encoding="UTF-8"?>
<svg xmlns="http://www.w3.org/2000/svg" version="1.1" viewBox="0 0 395 362">
  <defs>
    <style>
      .cls-1 {
        fill: #edc432;
      }

      .cls-1, .cls-2, .cls-3, .cls-4, .cls-5, .cls-6, .cls-7, .cls-8, .cls-9, .cls-10, .cls-11, .cls-12, .cls-13, .cls-14 {
        stroke: #232422;
        stroke-miterlimit: 10;
      }

      .cls-2 {
        fill: #304d70;
      }

      .cls-3 {
        fill: #657e8a;
      }

      .cls-4 {
        fill: #f3e9b9;
      }

      .cls-5 {
        fill: #f4eac0;
      }

      .cls-6 {
        fill: #e5b42f;
      }

      .cls-7 {
        fill: #e4dcaf;
      }

      .cls-15 {
        fill: #fff;
      }

      .cls-8 {
        fill: #9f4c66;
      }

      .cls-9 {
        fill: #99745e;
      }

      .cls-10 {
        fill: #edcd37;
      }

      .cls-11 {
        fill: #ecc532;
      }

      .cls-12 {
        fill: #6b8f99;
      }

      .cls-13 {
        fill: #35556d;
      }

      .cls-14 {
        fill: #e8c03c;
      }
    </style>
  </defs>
  <!-- Generator: Adobe Illustrator 28.7.1, SVG Export Plug-In . SVG Version: 1.2.0 Build 142)  -->
  <g>
    <g id="Calque_1">
      <g>
        <g>
          <path class="cls-14" d="M0,190.7c0-14.7-1.6-24.4,21.4-44.2,11.8-9.6,20.3-17.9,40-20.5,11.3-1.4,110.3-14.1,121.9-15.6,13-1.8,17.3,3.2,22.9,7.1,2.9,2.7,22.2,19.3,23.8,30.7,1.7,12.2.7,97.1.8,98.6-.2,8.2-3.8,37.7-26.3,39.8-27.1,1.5-144.2,9.9-173,15-3.9-3.2-12.9-12.7-19.7-21.2C4.2,270.9-.3,266.8,0,250.6c.7-38.2,0-57.4,0-59.9Z"/>
          <path class="cls-2" d="M20.3,182.4c-.2-.2,167.6-24.5,187.4-22.8,0,0-14.8-21.8-20.8-21.3-40.1,3.7-110.8,14.8-143.4,18.8-10.6,1.3-22.2,22.5-23.2,25.3h0Z"/>
          <path class="cls-9" d="M26.7,264.6l8.2,6.8c15.8-2.8,133.9-12.9,148.5-14,27-2,26.9-.5,26.4-27.3,0-1.8-.2-10-.2-10,.2,15.9-10.7,18-28,19.1l-150,13.4c-9.2,1.2-9.7-1.9-10.5-13.1l.7,12.1c.5,7.8.3,9.4,4.8,13.1h0Z"/>
          <path class="cls-6" d="M17.8,240.5c0,10.1,2.9,13.9,11.4,13.3,1.4-.2,150.7-13.5,152.7-13.6,28.6-2,28.3,0,27.6-29.5l-.4-45.8c0-2.6-.3-5.1-2.7-5.3-20.1-1.7-178.9,21.4-184.5,22.7,0,0-3.5.3-3.8,5-.2,3.2-.3,53.3-.3,53.3h0Z"/>
          <path class="cls-7" d="M150.3,99.5h-3.9c0,.1,0-48.6,0-48.6,0-2.7,3.9-2.7,3.9,0v48.3"/>
          <path class="cls-7" d="M166.5,107.2h-3.9c0,.1,0-48.6,0-48.6,0-2.7,3.9-2.7,3.9,0v48.3"/>
          <path class="cls-7" d="M191.3,103.1l-3.9.2V20.9c0-4.6,3.9-4.6,3.8,0v81.6"/>
          <path class="cls-7" d="M217.4,100.1l-3.9.2V4c0-5.4,3.9-5.4,3.8,0v95.5"/>
          <path class="cls-7" d="M240.5,106.6l-3.9.2V10.5c0-5.4,3.9-5.4,3.8,0v95.5"/>
          <path class="cls-7" d="M121.5,109.3c4.3-7.1,7-7.3,13.9-8.4,8.6-1.4,70.5-8.6,79.6-8.4,9.2.2,13,2.4,20,6.3s21.8,10.9,26.6,15.8c5.3,5.5,7.4,7.6,12.6,9.5,0,0,33.2,12.5,37,16.1,3.8,3.6,7.7,8.9,9.1,13.8,0,0-1.9-1.1-5.9-2.9-7.5-3.5-89.6-39.5-99-39.5-8.7,0-17.9-.2-19-.6-7.7-2.5-17.8.2-32.2,1.9-16.3,1.9-34,4.1-48.4,6-.1-10.3,4.3-7.3,5.7-9.6h0Z"/>
          <path class="cls-4" d="M193,110.5s16.7-.5,22.7.3c5.4.8,54.5,19.2,80,31.6,15,7.3,20.9,11.4,22.7,25.1.9,7,1,19.3,1,19.3l-90.3-38.2c-1.1-10.9-20.8-28.3-24-31.1-8.2-6.7-12.1-6.9-12.1-6.9h0Z"/>
          <path class="cls-5" d="M324,156.1s-3.9-1.8-8.2-4.1l-12-5.4c11.7,6.9,13.2,12.2,14.6,21,1.1,6.9.9,19.2,1,19.1l75.6,33.4c0-2.7-.2-8.5-1.9-11.9-4.2-8.5-8.2-21.7-25.4-31.7-16.8-9.7-43.7-20.5-43.7-20.5h0Z"/>
          <path class="cls-11" d="M229.7,246.8l88.9,25.2.8-85.3-90.3-38.2c1.4,7.6.6,96.3.6,98.3Z"/>
          <path class="cls-10" d="M395.1,276.7c-.2,3.9,1.9,17.8-16.1,14.1-16.9-3.5-60.4-18.8-60.4-18.8l.8-85.3,75.6,33.4v56.6c.1,0,.1,0,.1,0Z"/>
          <path class="cls-3" d="M340.1,351.1s1.4,0,1.8-.2c3.4-2.6,32.3-24.2,34.5-27.6,2.1-3.3-10.8-5.8-14.4-6.5-17.3-3.6-52-13.3-52-13.3,0,0-25.6-8.7-51.4-13.7-26.9-5.2-54.1-3.1-54.1-3.1-11.4.6-145.3,9.9-173.9,15.1,5.3,5.6,24,17.7,35,31.1l160.8-10.6c8,1.5,67,15.9,96.3,23.1,4.7,1.2,9.8,2.4,11.6,2.9,1.1.3,3.3.9,4.3,1,3.1.5,3.2,1.8,1.5,1.9h0Z"/>
          <path class="cls-8" d="M338.5,349.1l-109.7-26.8c-1.4-.5-10-.5-37.3,1.7-29.7,2.4-125.9,8.8-125.9,8.8,3,3.8,25.4,11.5,49.3,16.4,3.2.7,39.4,7.2,39.4,7.2,13.7,2.4,30.1,8.4,62.6,4.5,3.8-.5,102.4-8.2,123-9.6,3.9-.3,1.1-1.6-1.4-2.2h0Z"/>
          <polygon class="cls-13" points="293.7 245.3 254 234.7 254.7 180.5 293.7 193.5 293.7 245.3"/>
          <polygon class="cls-13" points="372.7 267.5 341.9 259.3 342.5 217.2 372.7 227.3 372.7 267.5"/>
          <polygon class="cls-12" points="259 189 258.3 235.9 254 234.7 254.7 180.5 293.7 193.5 293.7 200.8 259 189"/>
          <polygon class="cls-12" points="345.8 223.8 345.3 260 341.9 259.1 342.5 217.2 372.6 227.3 372.6 232.9 345.8 223.8"/>
          <path class="cls-1" d="M203.5,286.7c22.4-2.1,26.1-31.6,26.3-39.8l88.5,25.1c.2,21.1-1,26-7,31.7,0,0-27.1-9-52.8-14-26.9-5.2-55-3-55-3h0Z"/>
          <path class="cls-10" d="M311.3,303.7s34.2,9.5,51.5,13.1c3.6.7,14.7,3.1,13.7,6.1.5,0,14.3-14.3,16.4-18.8.7-1.4,1.8-2.2,2-10.2v-11.9c-1,13-15.1,9-15.1,9-16.9-3.5-61.6-19-61.6-19,0,18.8-1,25.9-7,31.7h0Z"/>
        </g>
        <g>
          <path class="cls-15" d="M278.7,306.9l-.3,1c-.7,2.6-2,4.7-5.7,8.3l-6.4,6.2,8,2-1,3.9-12.6-3.2.9-3.5,8.6-8.3c2.7-2.6,3.7-4.3,4.3-6.6v-.5c.6-1.8,0-2.9-1.5-3.3s-2.5.4-3.1,2.6l-.3,1.4-3.9-1.2.5-1.9c1-4,4-5.7,7.9-4.7,4,1,5.7,3.9,4.8,7.8Z"/>
          <path class="cls-15" d="M294.8,311.6l-3.6,14.2c-1.1,4.3-4.3,6.2-8.4,5.2-4.1-1-6-4.3-4.9-8.5l3.6-14.2c1.1-4.3,4.2-6.2,8.4-5.2,4.1,1,6,4.3,4.9,8.5ZM285.6,309.4l-3.6,14.1c-.5,2,.1,3.3,1.7,3.7,1.6.4,2.8-.5,3.3-2.5l3.6-14.1c.5-2-.1-3.3-1.7-3.7-1.6-.4-2.8.5-3.3,2.5Z"/>
          <path class="cls-15" d="M310.3,314.8l-.3,1c-.7,2.6-2,4.7-5.7,8.3l-6.4,6.2,8,2-1,3.9-12.6-3.2.9-3.5,8.6-8.3c2.7-2.6,3.7-4.3,4.3-6.6v-.5c.6-1.8,0-2.9-1.5-3.3-1.5-.4-2.5.4-3.1,2.6l-.3,1.4-3.9-1.2.5-1.9c1-4,4-5.7,7.9-4.7,4,1,5.7,3.9,4.8,7.8Z"/>
          <path class="cls-15" d="M325.4,316.6l-7.5-1.9-2,6.3h0c.7-.5,1.9-.8,3.5-.4,3.4.9,4.9,3.8,3.9,8.1l-1.3,5.1c-1.1,4.2-4.1,6.1-8.2,5-4.1-1-5.9-4.1-4.9-8.2l.3-1,4,.8-.2.7c-.6,2.2,0,3.4,1.7,3.8,1.7.4,2.8-.5,3.4-2.5l1.2-4.6c.5-2-.1-3.4-1.8-3.8-1.4-.4-2.5.2-3,1.7l-.2.5-3.8-1.1,4.8-15.3,11.1,2.8-1,3.9Z"/>
        </g>
        <g>
          <path class="cls-15" d="M55.4,198.1l.2,29.3c0,8.8-5.1,14.6-13.6,15.4-8.5.8-13.7-4.1-13.7-12.9l-.2-29.3c0-8.8,5.1-14.6,13.6-15.4,8.5-.8,13.7,4.1,13.7,12.9ZM36.6,199.8l.2,29.1c0,4.2,1.9,6.2,5.2,5.9s5.2-2.7,5.2-6.9l-.2-29.1c0-4.2-1.9-6.2-5.2-5.9s-5.2,2.7-5.2,6.9Z"/>
          <path class="cls-15" d="M87.1,193.9v2.1c0,5.4-1.5,10.3-6.8,19.4l-9.3,16,16.4-1.5v8s-26,2.3-26,2.3v-7.2s12.4-21.4,12.4-21.4c3.9-6.7,5-10.7,4.9-15.2v-1.1c0-3.7-1.6-5.5-4.8-5.2-3.1.3-4.7,2.3-4.7,7.1v2.8s-8.1.3-8.1.3v-3.8c0-8.2,4.8-13.5,12.9-14.2,8.1-.7,13,3.6,13.1,11.6Z"/>
          <path class="cls-15" d="M136.9,233.4l-.2-38.9h-.2s-6.8,31.5-6.8,31.5l-5,.5-7.2-30.3h-.2s.2,38.9.2,38.9l-8,.7-.3-56,11.1-1,6.8,29.5h.2s6.4-30.7,6.4-30.7l11.4-1,.3,56-8.5.8Z"/>
          <path class="cls-15" d="M172.9,230.2l-1.9-12.6-9.3.8-1.8,12.9-8.5.8,9.3-56.9,10.8-1,10,55.2-8.6.8ZM162.7,210.7l7.1-.6-3.6-23.3h-.2s-3.3,23.9-3.3,23.9Z"/>
          <path class="cls-15" d="M187.6,228.9l-.3-56,8.5-.8.3,56-8.5.8Z"/>
        </g>
      </g>
    </g>
  </g>
</svg>