<?xml version="1.0" encoding="UTF-8"?>
<svg xmlns="http://www.w3.org/2000/svg" version="1.1" viewBox="0 0 175 82">
  <defs>
    <style>
      .cls-1 {
        fill: #fffdf4;
      }
    </style>
  </defs>
  <!-- Generator: Adobe Illustrator 28.7.1, SVG Export Plug-In . SVG Version: 1.2.0 Build 142)  -->
  <g>
    <g id="Calque_1">
      <g>
        <polygon class="cls-1" points="55.3 71.5 54.3 71.5 54.3 80.7 59.5 80.7 59.5 79.9 55.3 79.9 55.3 71.5"/>
        <path class="cls-1" d="M63.8,74c-2.1,0-3.5,1.5-3.5,3.5s1.4,3.5,3.5,3.5,2.4-.6,2.9-1.5l-.8-.5c-.4.6-1.1,1.1-2.1,1.1s-2.5-.8-2.6-2.2h5.8c0-.1,0-.3,0-.4,0-1.8-1.3-3.5-3.3-3.5ZM61.3,77c.2-1.3,1.2-2.2,2.5-2.2s2.2.8,2.4,2.2h-4.9Z"/>
        <path class="cls-1" d="M79.6,73.9c-.8,0-1.7.4-2.1,1.2-.4-.8-1.1-1.2-2-1.2s-1.5.3-2,1.1v-1h-.9v6.6h.9v-3.7c0-1.6,1-2.3,1.9-2.3s1.6.6,1.6,1.8v4.1h.9v-3.7c0-1.6.8-2.3,1.8-2.3s1.6.6,1.6,1.8v4.1h.9v-4.1c0-1.7-1-2.6-2.5-2.7Z"/>
        <path class="cls-1" d="M88.9,77.6c0,1.8-1,2.5-2.1,2.5s-1.8-.7-1.8-1.9v-4.1h-.9v4.1c0,1.7,1,2.7,2.6,2.7s1.7-.4,2.2-1.2v1h.9v-6.6h-.9v3.5Z"/>
        <rect class="cls-1" x="92" y="71.1" width=".9" height="9.7"/>
        <path class="cls-1" d="M96.6,72.3l-.9.3v1.6h-1.4v.9h1.4v4c0,1.6,1,2,2.8,1.8v-.8c-1.3,0-1.9.2-1.9-1v-4h1.9v-.9h-1.9v-1.9h0Z"/>
        <rect class="cls-1" x="100.1" y="74.1" width=".9" height="6.6"/>
        <circle class="cls-1" cx="100.5" cy="72.1" r=".6"/>
        <path class="cls-1" d="M110.2,73.9c-.8,0-1.7.4-2.1,1.2-.4-.8-1.1-1.2-2-1.2s-1.5.3-2,1.1v-1h-.9v6.6h.9v-3.7c0-1.6,1-2.3,1.9-2.3s1.6.6,1.6,1.8v4.1h.9v-3.7c0-1.6.8-2.3,1.8-2.3s1.6.6,1.6,1.8v4.1h.9v-4.1c0-1.7-1-2.6-2.5-2.7Z"/>
        <path class="cls-1" d="M117.9,74c-2.1,0-3.5,1.5-3.5,3.5s1.4,3.5,3.5,3.5,2.4-.6,2.9-1.5l-.8-.5c-.4.6-1.1,1.1-2.1,1.1s-2.5-.8-2.6-2.2h5.8c0-.1,0-.3,0-.4,0-1.8-1.3-3.5-3.3-3.5ZM115.3,77c.2-1.3,1.2-2.2,2.5-2.2s2.2.8,2.4,2.2h-4.9Z"/>
        <polygon class="cls-1" points="118 73.2 119.2 71.5 118.2 71.5 117.1 73.2 118 73.2"/>
        <path class="cls-1" d="M128.6,75.4c-.6-.9-1.5-1.5-2.7-1.5-1.9,0-3.4,1.5-3.4,3.5s1.5,3.5,3.4,3.5,2.1-.6,2.7-1.5v1.3h.9v-9.3h-.9v3.9ZM126,80.1c-1.5,0-2.6-1.2-2.6-2.6s1.1-2.6,2.6-2.6,2.6,1.2,2.6,2.6-1.1,2.6-2.6,2.6Z"/>
        <rect class="cls-1" x="131.7" y="74.1" width=".9" height="6.6"/>
        <circle class="cls-1" cx="132.1" cy="72.1" r=".6"/>
        <path class="cls-1" d="M140.4,75.4c-.6-.9-1.5-1.5-2.7-1.5-1.9,0-3.4,1.5-3.4,3.5s1.5,3.5,3.4,3.5,2.1-.6,2.7-1.5v1.3h.9v-6.6h-.9v1.3ZM137.8,80.1c-1.5,0-2.6-1.2-2.6-2.6s1.1-2.6,2.6-2.6,2.6,1.2,2.6,2.6c0,1.5-1.1,2.6-2.6,2.6Z"/>
        <path class="cls-1" d="M153,75.4c-.6-.9-1.5-1.5-2.7-1.5-1.9,0-3.4,1.5-3.4,3.5s1.5,3.5,3.4,3.5,2.1-.6,2.7-1.5v1.3h.9v-9.3h-.9v3.9ZM150.4,80.1c-1.5,0-2.6-1.2-2.6-2.6s1.1-2.6,2.6-2.6,2.6,1.2,2.6,2.6-1.1,2.6-2.6,2.6Z"/>
        <polygon class="cls-1" points="155.9 74.4 156.8 74.4 157.5 71.5 156.5 71.5 155.9 74.4"/>
        <rect class="cls-1" x="159.3" y="74.1" width=".9" height="6.6"/>
        <circle class="cls-1" cx="159.8" cy="72.1" r=".6"/>
        <path class="cls-1" d="M165.4,80.1c-1.5,0-2.6-1.2-2.6-2.6s1.1-2.6,2.6-2.6,1.8.5,2.2,1.3l.7-.4c-.5-1.1-1.6-1.7-2.9-1.7-2,0-3.5,1.5-3.5,3.5s1.5,3.5,3.5,3.5c1.3,0,2.4-.7,3-1.7l-.7-.4c-.4.8-1.2,1.3-2.2,1.3Z"/>
        <rect class="cls-1" x="170" y="74.1" width=".9" height="6.6"/>
        <circle class="cls-1" cx="170.5" cy="72.1" r=".6"/>
        <circle class="cls-1" cx="173.6" cy="80.1" r=".7"/>
        <path class="cls-1" d="M45.5,22.8c-.5,0-1.1.5-1.5,1.2v6c0,1,.4,1.4,1.1,1.4s1.1-.4,1.1-1.5v-5.7c0-1.3-.2-1.5-.7-1.5Z"/>
        <path class="cls-1" d="M15.8,56.5c-.5,0-1.1.5-1.6,1.2v6c0,1,.4,1.4,1.2,1.4s1.2-.4,1.2-1.5v-5.7c0-1.3-.2-1.5-.7-1.5Z"/>
        <path class="cls-1" d="M89.7,43.2c.8,0,1.1-.4,1.1-1.5v-5.7c0-1.3-.2-1.5-.7-1.5-.5,0-1.1.5-1.6,1.2v6c0,1,.4,1.4,1.1,1.4Z"/>
        <path class="cls-1" d="M114.2,43.2c.8,0,1.3-.6,1.3-1.6v-5.6c0-1.1-.5-1.6-1.3-1.6s-1.2.5-1.2,1.6v5.6c0,1.1.4,1.6,1.2,1.6Z"/>
        <path class="cls-1" d="M78.5,44.9v6.3c0,4.2,3.4,7.5,7.5,7.5h32.1c4.2,0,7.5-3.4,7.5-7.5v-32c0-4.2-3.3-7.5-7.5-7.5h-32c-2.1,0-3.9.8-5.3,2.2v-6.3c0-4.2-3.4-7.5-7.5-7.5h-32.1c-4.2,0-7.5,3.4-7.5,7.5v26.2H7.5c-4.2,0-7.5,3.4-7.5,7.5v39.5h39.6c4.2,0,7.5-3.4,7.5-7.5v-26.2h26.1c2.1,0,3.9-.8,5.3-2.2ZM106.8,36.2c0-4.9,2.5-7.4,7.3-7.4s7.4,2.5,7.4,7.4v5.1c0,4.9-2.5,7.4-7.4,7.4s-7.3-2.5-7.3-7.4v-5.1ZM98.8,21.6h4.8c.8,0,1.3.5,1.3,1.3v25.3h-6.1v-26.6ZM82.4,21.6h4.8c.8,0,1.3.5,1.3,1.3v7.8c.9-1.1,2.3-2,4-2,2.8,0,4.4,1.7,4.4,6.9v5.5c0,5.1-2.4,7.6-7.3,7.6s-7.1-2.4-7.1-7.5v-19.6h0ZM22.8,63.2c0,5.1-2.5,7.6-7.6,7.6s-7.4-2.4-7.4-7.5v-19.6h5c.8,0,1.3.5,1.3,1.3v7.8c.9-1.1,2.4-2,4.1-2,2.9,0,4.6,1.7,4.6,6.9v5.5ZM31,70.3h-6.3v-26.6h5c.8,0,1.3.5,1.3,1.3v25.3ZM39.3,70.3h-6.3v-12.3h5c.8,0,1.3.5,1.3,1.3v11ZM39.3,55.8h-6.3v-4.9h5c.8,0,1.3.5,1.3,1.3v3.7ZM52.3,29.5c0,5.1-2.4,7.6-7.3,7.6s-7.1-2.4-7.1-7.5V10h4.8c.8,0,1.3.5,1.3,1.3v7.8c.8-1.1,2.3-2,3.9-2,2.8,0,4.4,1.7,4.4,6.9v5.5ZM60.3,36.6h-6.1V10h4.8c.8,0,1.3.5,1.3,1.3v25.3ZM70.8,35.3v-.7c-1.1,1.6-2.5,2.5-4,2.5-2.8,0-4.6-2.1-4.6-6.3v-.9c0-3.8,2.2-5.8,5.9-5.8s1.3,0,2.2.2v-.6c0-.7-.4-1.1-1.9-1.1s-2.1.2-3.6.5c-.9.2-1.4-.2-1.4-1.1v-4.1c2.3-.5,4.2-.8,6-.8,5.3,0,6.9,1.5,6.9,7.5v12h-4.3c-.8,0-1.3-.5-1.3-1.3Z"/>
        <path class="cls-1" d="M68.2,29.9v.2c0,.9.3,1.3.7,1.3s.9-.2,1.4-1.1v-1.8c-.4,0-.7-.1-.9-.1-.8,0-1.2.5-1.2,1.5Z"/>
      </g>
    </g>
  </g>
</svg>