<?xml version="1.0" encoding="UTF-8"?>
<svg xmlns="http://www.w3.org/2000/svg" version="1.1" viewBox="0 0 140 84">
  <defs>
    <style>
      .cls-1 {
        fill: #fff;
      }
    </style>
  </defs>
  <!-- Generator: Adobe Illustrator 28.7.1, SVG Export Plug-In . SVG Version: 1.2.0 Build 142)  -->
  <g>
    <g id="Calque_1">
      <g id="Ebene_2">
        <path class="cls-1" d="M18.3,17.7h-6.8v-3.6c0-1.6-.2-2.6-2.4-2.6s-2.2,1.2-2.2,2.6v14.3c0,1.8.2,2.8,2.3,2.8s2.2-1.4,2.2-2.8v-3.6h7v2.6c0,5.4-1.3,8.7-9.4,8.7S0,33.2,0,28.7v-14.1c0-2,.2-3.7,1.4-5.2,2.2-2.6,5.8-2.8,7.8-2.8s5,.4,6.9,1.9c2.1,1.7,2.2,4,2.2,5.8v3.4h0Z"/>
        <polygon class="cls-1" points="21 7.1 28 7.1 28 18.7 32.8 18.7 32.8 7.1 39.8 7.1 39.8 35.8 32.8 35.8 32.8 23.7 28 23.7 28 35.8 21 35.8 21 7.1"/>
        <path class="cls-1" d="M49.6,28.7c0,1.3,0,2.4,2.4,2.4s2.4-.8,2.4-2.4v-14.7c0-1.9-.7-2.4-2.5-2.4s-2.3.6-2.3,2.3c0,0,0,14.7,0,14.7ZM42.7,15.2c0-2.3.3-4.5,2-6.3,2.2-2.3,5.4-2.4,7.5-2.4,9.1,0,9.1,6.2,9.1,9.3v11c0,2.3,0,5-2.1,7.2-2,2.1-5.2,2.2-7.2,2.2-9.1,0-9.3-5.8-9.3-9.1v-11.9h0Z"/>
        <path class="cls-1" d="M73.6,20.2c2.6,0,2.6-.7,2.6-4.4s0-3.3-.9-3.7c-.5-.2-3.2-.2-4-.2v8.3h2.3ZM64.3,7h11.6c5,0,6.7,1.7,6.7,5.9v5.9c0,5.5-2.2,6.5-6.4,6.5h-5v10.4h-7V7Z"/>
        <polygon class="cls-1" points="99.5 7.1 99.5 12 92.3 12 92.3 18.4 98.9 18.4 98.9 23.4 92.3 23.4 92.3 35.8 85.3 35.8 85.3 7.1 99.5 7.1"/>
        <path class="cls-1" d="M109.6,11.6l-2,12.8h3.9l-1.9-12.8h0ZM104.9,7.1h9.3l5.8,28.7h-6.8l-1-6.5h-5.3l-1,6.5h-6.8l5.8-28.7h0Z"/>
        <path class="cls-1" d="M128.5,12.1v6.1h2.8c1.7,0,1.9-1,1.9-3.1s-.4-3-2.1-3h-2.6,0ZM128.5,23.4v7.2h2.6c2.2,0,2.2-1.5,2.2-3.5s-.1-3.7-2.2-3.7h-2.6ZM122,7.1h9.5c2,0,4.1.1,5.8,1.2,1.8,1.2,2.2,3,2.2,5.2,0,4.1-.3,5.8-3.9,7.1,1.4.4,2.9.9,3.7,2.7.4.9.6,2,.6,4.6s0,3.7-1.1,5.4c-1.5,2.5-4,2.5-6.1,2.5h-10.6V7.1h0Z"/>
        <rect class="cls-1" x="0" width="139.8" height="1.4"/>
        <rect class="cls-1" x="0" y="41.2" width="139.8" height="1.4"/>
        <rect class="cls-1" x="0" y="82.5" width="139.8" height="1.4"/>
        <path class="cls-1" d="M90.2,59.8h-2.2v-6.6h2.1c1.9,0,2.4.3,2.4,3s-.1,3.6-2.4,3.6M98.8,73.9v-6.1c0-2.2,0-3.3-.8-4.3-.9-1.1-2.6-1.4-2.9-1.5,2.5-1.4,3.6-2.4,3.6-6.3s-.1-4.5-2-6c-1.6-1.3-3.6-1.3-5.5-1.3h-9.8v28.7h6.5v-12.2h1.3c3,0,3.3.5,3.3,3.3v4.6c0,1.7,0,3,.9,4.3h6.4c-.7-.7-1-1.3-1-3.1"/>
        <polygon class="cls-1" points="63.6 77 78.5 77 78.5 71.9 70.5 71.9 70.5 65 78 65 78 60 70.5 60 70.5 53.3 78.5 53.3 78.5 48.3 63.6 48.3 63.6 77"/>
        <polygon class="cls-1" points="54 48.3 51.2 57.5 48.3 48.3 41.3 48.3 46.5 61.8 41.5 77 48.5 77 51.2 66 53.8 77 60.9 77 55.8 61.8 60.9 48.3 54 48.3"/>
        <path class="cls-1" d="M32.9,69.9c0,1.7-.5,2.4-2.4,2.4s-2.4-1.1-2.4-2.4v-14.7c0-1.7.6-2.3,2.3-2.3s2.5.5,2.5,2.4v14.7h0ZM30.5,47.7c-6,0-9.4,2.4-9.4,8.5v12.4c0,6.6,3.4,8.7,9.6,8.7,8.8,0,9.2-5.2,9.2-9.3v-11.3c0-6.2-2.7-8.9-9.4-8.9"/>
        <path class="cls-1" d="M9.5,71.8h-2.7v-7.3h2.7c2.1,0,2.2,1.1,2.2,3.8s-.2,3.5-2.2,3.5M6.8,53.4h2.7c1.7,0,2.1.7,2.1,3s-.2,3.1-1.9,3.1h-2.9v-6.1h0ZM13.8,61.8c2.7-.9,3.9-2.1,3.9-5.9v-2c0-3.5-2.5-5.6-7.2-5.6H.2v28.7h10.7c3.9,0,7.1-.8,7.1-7.8v-1.3c0-3.4-.8-5.2-4.2-6.1"/>
      </g>
    </g>
  </g>
</svg>