<?xml version="1.0" encoding="UTF-8"?>
<svg xmlns="http://www.w3.org/2000/svg" xmlns:xlink="http://www.w3.org/1999/xlink" version="1.1" viewBox="0 0 312.2 220.1">
  <defs>
    <style>
      .cls-1 {
        fill: none;
      }

      .cls-2 {
        clip-path: url(#clippath-1);
      }

      .cls-3 {
        clip-path: url(#clippath-2);
      }

      .cls-4 {
        fill: #fff;
      }

      .cls-5 {
        clip-path: url(#clippath);
      }
    </style>
    <clipPath id="clippath">
      <rect class="cls-1" width="312.1" height="220.1"/>
    </clipPath>
    <clipPath id="clippath-1">
      <rect class="cls-1" width="312.1" height="220.1"/>
    </clipPath>
    <clipPath id="clippath-2">
      <rect class="cls-1" width="312.1" height="220.1"/>
    </clipPath>
  </defs>
  <!-- Generator: Adobe Illustrator 28.7.1, SVG Export Plug-In . SVG Version: 1.2.0 Build 142)  -->
  <g>
    <g id="Ebene_1">
      <g>
        <g class="cls-5">
          <path class="cls-4" d="M309,188.7v-19.2c0-7-.3-10.5-2.6-13.4-2.8-3.6-8.1-4.5-8.9-4.7,7.9-4.3,11.4-7.4,11.4-19.9s-.4-14.2-6.1-18.9c-5-4.1-11.2-4.2-17.3-4.2h-30.8v90.2h20.4v-38.5h4c9.5,0,10.2,1.7,10.2,10.5v14.6c0,5.4.1,9.5,2.7,13.4h20.1c-2-2.3-3.1-4.1-3.1-9.8M281.9,144.6h-6.8v-20.7h6.6c5.9,0,7.5.9,7.5,9.3s-.4,11.4-7.4,11.4"/>
        </g>
        <polygon class="cls-4" points="198.7 198.5 245.4 198.5 245.4 182.5 220.6 182.5 220.6 160.8 244 160.8 244 145 220.6 145 220.6 124.2 245.4 124.2 245.4 108.3 198.7 108.3 198.7 198.5"/>
        <polygon class="cls-4" points="168.8 108.3 160.1 137.3 151.2 108.3 129.2 108.3 145.4 150.7 129.8 198.5 151.8 198.5 160.1 164 168.3 198.5 190.5 198.5 174.6 150.7 190.5 108.3 168.8 108.3"/>
        <g class="cls-2">
          <path class="cls-4" d="M95.3,106.5c-18.9,0-29.4,7.4-29.4,26.7v39c0,20.7,10.6,27.5,29.9,27.5,27.5,0,28.8-16.5,28.8-29.4v-35.6c0-19.4-8.4-28.1-29.3-28.1M102.9,176.2c0,5.2-1.7,7.7-7.5,7.7s-7.5-3.6-7.5-7.7v-46.3c0-5.4,1.8-7.3,7.2-7.3s7.9,1.5,7.9,7.4v46.1Z"/>
          <path class="cls-4" d="M43.3,150.7c8.4-2.8,12.1-6.5,12.1-18.7v-6.1c0-11.1-7.9-17.6-22.5-17.6H.7v90.2h33.5c12.3,0,22.4-2.4,22.4-24.7v-4.1c0-10.6-2.6-16.4-13.3-19M21.2,124.3h8.3c5.4,0,6.6,2.3,6.6,9.5s-.6,9.8-6,9.8h-8.9v-19.3ZM29.6,182.3h-8.4v-22.9h8.4c6.6,0,6.9,3.6,6.9,11.9s-.6,11-6.9,11"/>
        </g>
        <path class="cls-4" d="M0,86.1v4.4h75.7l.7-.3,4.1-4.1H0ZM101.4,86.1l-4,4.4h28.4l-4.6-4.4h-19.7ZM152.4,86.1l.3.2.2-.2h-.4ZM173.7,86.1l-1.1,2.9.6,1.5h138.8v-4.4h-138.4Z"/>
        <rect class="cls-4" y="215.7" width="312.1" height="4.4"/>
        <g class="cls-3">
          <path class="cls-4" d="M180.5,58.9c-1.8-1.4-4.7-4.6-7-6.2-3.1-2.3-6.1-4.5-9.4-4.7-5.6-1-11-1.8-15.7-5.4-2.2-2.2-3.9-4.8-5.9-7.2,3.9-1.9,2-6.4,3.2-9.7,1.3-3.8,3.4-7.3,3.8-11.3.1-1.1,0-2-.3-3-.4-1-1.1-1.9-1.8-2.6-1.7-1.7-4.2-2.6-6.4-3.5-1.7-.7-3.6-1-5.1-2-.8-.6-1.8-.7-2.8-.9-.8-.2-1.6-.2-2.5-.1-.5,0-.9-.1-1.4-.3-.4-.1-.9-.3-1.3-.4-.9-.3-1.7-.7-2.6-.9-.6-.2-1.3-.2-1.9-.3-1.4-.2-2.8-.3-4.2,0-1.4.2-2.8.8-4,1.3-.7.3-1.4.7-2.2.9-.6.2-1.1.3-1.6.6-.1,0-1.2.7-1.1.9-.4-.8-1.9-1.1-2.2-1.1-1.1,0-2.3-.1-3.2.7-.5.4-.8.6-1.5,1.2-.7.6-.7.4-1.6.7-.9.3-8.5,2.4-11.3,6.5-.7,1.3-1.5,2.4-.6,3.8.8,1.8,1.1,3.6,1.4,5.5.8,3,3,5.4,4.4,8.2.8,1.8,1,3.9,2.5,5.3,1,.9,2.4,2.3,3.9,1.9.7-.2,1.4-.7,1.4-1.5.5-1-.1-2.1-.3-3.1,0-.8-.1-1.5,0-2.2.4,1.8,1.4,3.3,2.1,5,.4.8.5,1.7.9,2.5.3.4,0,1,0,1.4-.3,1.2-.5,2.5-1,3.7-.3.6-.7,1.1-1,1.7-2.9,5.9-7.3,10.9-9.7,17-1.6,2.8-2.5,6-4.1,8.8-2.1,3.5-4.1,7-5.9,10.7-2.1,3.9-5.4,6.8-8.6,9.8-3.1,3.1-7.9-.8-11.7,2.3-2.2,1.6-6.9,9-2,9.9.4,1.1,0,2,1.2,2.6,1.1.7,3.1,1.8,4,.4,1.9.2,2.9,1.3,4.9,0,.7-.2,1.8.6,2.2-.4.6.7,1.8.8,2.5,0,.7-.3,1.5,0,2.2-.2.6-.3,1.3,0,1.9-.4.7-.5,1.6-.6,2.4-.8,2.1-.6,3.9-1.8,5.5-3.1,4.5-3.6,8.5-7.7,12.4-11.8.3-.3.9-.4,1.3-.6.5-.2.9-.4,1.4-.6,1-.4,2,.3,3.1,0,4.4-.9,9.8-1.8,13.1,1.8.9,1,2.1,1.8,3.4,2.4,1.3.7,2.2,1.4,3.2,2.5.8.8,1.7,1.7,2.6,2.5-.5,2.3-1.8,5.8-.2,7.9,1.5,1.1,1.8,1.4,3.7.7.3-.3.6.6,1.3.7.6,0,1.2,0,1.7,0,.5-.1.9-.7,1.4-.7.2,0,.4,0,.5,0,.2,0,.4,0,.6-.1.4,0,.7.3,1.1.5.7.5,2.1,0,2.9-.2,1.1-.2,2.3,0,3.5-.1,1.1,0,2.1-.3,2.6-1.4.3-.8.7,0,1.7-1.1.4-.7.8-1.3.9-2,0-.2.1-.4.3-.6,2-3.1,6.3-1.7,9.5-1.8,2,0,4-.2,6,0,2.7.1,7.4.4,7.7-.7.2-1.2.3-2.4.3-3.5,0-.3,0-.6,0-1-.4-1.9-1-3.5-.5-3.7.5-.3.5-.1,1.1-.2,1.5-.2.4.2,1.8-.2,1.4,0,1.7.3,3.1.4.6,0,5.9.9,7.6.9.3-.1.6-.4.4-.7-.2-.2-.4-.5-.7-.4-1.6.4-.7.3-1.8,0-.5-.2-1.4-.5-1.6-1-.1-.2-.3-.4-.5-.6-1-.8-1.3-1.4-2-2.4.1.2-.7-1-.4-.5-.6-1-.9-1.5-1.7-2.5s-.2-.8-.3-1.1c-.3-1.4,0-3-.1-4.5-.1-2.1.1-4.1.3-6.1,0-2.6-2.2-4.5-3.6-6.5-.3-.4-.7-.8-.9-1.4-.1-.3-.6-1.1-1-.8-.5-.9-.8-1.9-1.2-2.9,0-.4-.9-.4-.8.1,0,.3.2.6,0,.9,0,.2,0,.4.1.6,4.7,8.1,5.5,10.6,4.4,20.1-.3,0-.5-.2-.7-.3-1.7-1.6-3.6-3-5.2-4.8-2.8-3.2-3.7-7.4-5.2-11.3-.2-1.3-2.8-10.2-4.6-8.1,0,0,.1.1,0,.2,0,.3.1.4.2.6,1.6,4,3.9,12.8,2.2,16.7-.8-.9-1.7-1.7-2.3-2.8-.2-.4-.4-.8-.6-1.1-2.6-4.4-2.7-9.7-4.3-14.5-.4-2.8-1.2-5.7-3-8,7,1.9,13.9,4.3,20,8.3,2.9,1.9,4.8,5.3,6.3,7.3,2.3,2.6,14.1,25,14.4,25.1,1.2.5,2.5.1,3.6.9.5.3-14.4-28-16.6-30.2M61.3,101.6c-.5,0-.7-1.5,0-1.2v1.2M65.1,100.5c-.4-.4-1-.4-1.4-.7-2-1.9-.1-4.5,1.9-5.5-.9,2-1,4.1-.5,6.2M141,16.9c1.2,3.8-.5,7.8.4,11.7.8,1.7,1.2-4.9,1.3-5.4,0-4.8-1.2-11.1,3.4-14.3.3.4.6.7.8,1.1.5,1.2,1.7,2.2,1.4,3.6-.3,1.3-.5,2.7-.9,4-.4,1.5-1.3,2.9-2,4.3-.2.5-.5.9-.6,1.4-.1.7-.5,1.4-.5,2.1-.3,1.1-.1,2.3-.4,3.5-.3,1.6-.9,3.4-2.1,4.5-1.6-.8-1.7-3.7-1.7-5.3,0-.9,0-1.8,0-2.7.1-.4,0-.8,0-1.2-.1-.5-.1-.9-.1-1.4,0-.6-.2-1.2,0-1.8.2-2.1-.3-4.3-.4-6.4-.2-1.5-1.1-2.8-1.5-4.2-.5-1.4-1.4-2.6-2.1-3.9-.4-.8-1.1-1.4-1.7-2.1,4.2,0,5.9,9.3,6.9,12.6M99.4,32.9c-.3-.2-.7-1.1-.8-1.5-.3-.7-.6-1.4-.8-2.1-1.7-5-7.5-10.2-5.1-15.8.6-1.2,1.1-2.9,2.5-3.5.4,2.4,1.1,5.1.5,7.4-.2.7-.3,1.4-.1,2.1.1.6-.3,2,.2,2.4,1.6,1.1,1.2-1.5,2-1.9,0,0,0,0,0,0,.1,1.1,0,2.2,0,3.3.1,2.1.9,4.1,1.1,6.2-.3,1.1.7,2.2.5,3.3M101.5,15.3c-.6,2.6-1.1,5.2-.5,7.9.4,2,.5,4.2.6,6.3,0,.6.2,2-.1,2.4-.7-.8-.8-2.6-1-3.7-.2-1.2-.4-2.5-.7-3.7-1.3-4.6.5-11,2.3-15.5.3-.8.6-1.6,1-2.4.5-.8,1.2-1.4,1.8-2.1.2-.2.4-.4.6-.5.3-.1.6-.1.9-.2.2,0,.3,0,.5,0,0,0,.4,0,.4,0-.9.7-1.9,1.3-2.7,2.2-1.3,1.5-1.6,2.5-1.6,4.4,0,.4-.7,2.2-.9,2.6-.2.8-.3,1.6-.4,2.4M103,24.6c-.5-1.7-.4-3.5-.4-5.2,0-.5,0-1.1,0-1.6.2-1.4.6-2.8,1.3-4.1,1.2-2.8,2.4-5.4,4.6-7.6.2-.2.9.1,1.2-.1.3-.3,1-1,1.7-1.5,1.9-1.3,4.1-2.2,6.3-2.6,1.8-.3,3.5-.6,5.3-.9,4.2,1.6,4.6.3,8.9,3.6,2.7,2.1,6.4,8.9,6.3,12.3-.4,4.6-1.4,9.3-2.8,13.7-.7,2.8-.8,5.8-1,8.7h0c-.8-1.9-.8-4-.8-6.1,0-.7.5-2.1,0-2.7-.8,1.2-.8,2.6-1,4-.6-1.1-.5-2.7-.6-3.9-.3-1.5-.1-3.1-.8-4.5-.3-.6-1.4-3.5-2.2-3.2-.3,0-.8.3-.4.6.9,1,1.4,2.4,1.8,3.7.3,1.5.4,3,.6,4.5-1-1.6-3.9-8.2-6.1-7.3-.2.3,1.4,1.3,1.6,1.5.6.8.9,1.8,1,2.7,0,.2,0,.4,0,.6,0,.3-.2.5-.4.8-.3.4-.8.8-1.2,1.1-.6.4-1.2.7-1.6,1.2-.5.5-.8,1.2-.6,1.8.2.6.7,1,1.2,1.4.8.5,1.5,1,2,1.7.7.9,1.3,1.9,1.5,3.1.3,1.7.5,3.5.5,5.3,0,.6-.2,1.1,0,1.6-.3.7,0,1.6,0,2.3,0,.1.2.2.2.3.1.6.8.7,1.1,1.1-1.7.6-2.1.2-2.8-1.4-.1-.3,0-.5,0-.8.3-1,.6-2.1.7-3.2.6-2.9-.7-6.2-3.2-7.8-.7-.3-1.3-.9-1.9-1.4-2-1.4,1.2-5.1-1.1-4.9,0,2.3-.9,4.9-2.8,6.4-.7.5-1.1,1.3-1.7,1.8-.8.9-1.6,1.7-1.9,2.9-.5,1.1-.9,2.4-1.5,3.4-.5.9-.8,1.8-1.4,2.6-.7.8-1.8,1-2.6.2-.2-.2-.4-.5-.5-.8-.2-.3-.4-.7-.2-1,.5.7.9,1.5,1.9,1.3,1.6-.3,1.9-2.5,2.2-3.8.4-1.5.9-2.9,1.6-4.3.1-.2.2-.5.4-.7.1-.2.3-.3.4-.4,1.4-1.2,2.8-2.6,3.8-4.1.7-1.1.2-3-1-3.5-1.1-.3-2.8-.1-3.2-1.6-1.2-2.2,1.1-4.3,2.7-5.6.3-.5,1.1,0,1.4-.4,0-.4-.5-.4-.8-.4-.3-.2-.6,0-.9,0-2.2.5-3.5,2.7-4.2,4.7-1.6,4-1.7,8.9-5.3,11.8-1.3-5.3-4.8-10-5.2-15.6M123.7,45.6c-1.1,1.2-3.3,1.2-4.4.2,1.5.1,2.9,0,4.4-.2M120.2,40.4c.8-.2.9-.5,1.2-.8.3-.3.3-.8.4-1,.4.4,0,1.3,1.7,1.9-.9.1-2.4-.1-3.3,0,0,0,0,0,0,0M67,100.6c-.5-.4-.8-1.5,0-1.6,0,.5.2,1.1,0,1.6M67.3,97.6c-.5,0-1,.2-1.4.5.2-4.3,1.2-5.2,5.4-5.1-1.4,1.4-1.8,4.3-4,4.5M69.7,101c-.8,0,.5-3.7.9-1.5,0,.6-.2,1.3-.9,1.5M76.4,99.9c.5.7.1,1.8.7,2-1.1,3-2-.7-.7-2M129.4,103c-.5-.9-.3-2.4,0-3.4,1.1.4.9,2.9,0,3.4M134.3,101.8c-.3,0-.6,0-1,.1-.4-.8-.5-1.6-.2-2.4,0-.4.3-.1.5-.2.6-.2,1,2.1.7,2.5M138.5,100.3c-.8-.1-1.1.7-1.4.5-.5-.2-.5-1.3.1-1.3.3,0,1.6.4,1.3.8M152.7,54.4c2.2,5.1,2.4,10.9,5.7,15.5.9,1.6,2,2.9,2.9,4.5,1.1,1.3,2.1,2.7,3.1,4.1,2.1,2.7,4.1,5.5,5.3,8.7,1.1,2.6,2.2,5.3,2.3,8.2.2,1.1-5.5.5-6.5.7-4.5,0-9.5,1.1-13.6-1.1.9-.8,2.6-.7,3.7-1.4.7-.2.3-1.2.2-1.6-.2-.8-.9-1.6-1.8-1.6-2.1,0-3.5,3.3-4.3,2.3-.4-.3-.6-.1-.9,0-.2.1-.3.3-.2.5,1,2.4,1.6,5.3.6,7.7-1.6-1.9-2.4-.2-2.3-2.9-.7-2.8-5.1-.5-3.3-4.2.1-.2,0-.3-.1-.4-3.3.6.2,6.6,1.5,8,1.1,1.3,1.3,1.6-.5,1-.3,0-.7-.2-.9-.5-.8-1.4-2.2-1.3-3.5-1.4-.6-.8-.3-1.8-1.2-2.3-.5-.5-1.1-.2-1.8,0-1-1.3-.2-3.1.7-4.3.1-.3,0-.3-.2-.4-.4,0-.5.2-.9.3-1.6.6-1.1,5-1.1,6.6-.8-3.1-3.8-.8-1.5-4.8,0-.3-.3-.2-.5,0-2.4.9-1.3,4.9-1.3,6.9,0,.1,0,.2-.1.3-.4.3-.2.8-.6,1.1-.4-1.3-.1-2.7-.5-4-.2-1.4-1.3-1.7-.8-2.5,1.7-2.3,4.4-3.5,6.4-5.3,2.9-2.6,6.1-8.4,10.9-6.8.9.4,1.7.8,2.6,1.2.4,0,.8.2,1.2.4,4.6,2,2.5,0,.2-1.7.5-.9,1.5-1.5,2.3-2.1,1-.8,2.2-1.2,3.4-1.8.7-.2,1.5-.5,2.2-.7.6-.2,1.8-.2,2-.8-4.4-2.7-9.8.6-13.3,3.4-2.7-1.1-5.6-.7-8.4-.6-1.3-.1-2.8-2.1-3.5-3.1,0-.4-.4-.9-.5-1.3-.1-.4-.2-.9-.3-1.3-.1-.9-.1-1.8,0-2.7.1-1.9.5-3.7.7-5.5,0,0,0-.2,0-.2-.1-.1-.3,0-.5,0-.7.4-1.4.7-2.1,1.1-.1,0-.2.1-.3.2-.1.2-.1.4,0,.6.2.7.2,1.5.2,2.3,0,.8.1,1.6,0,2.4-.5,4.3-1.5,8.4,3.1,10.8.8.4,1.6.7,2.3,1.2-.6.6-1.4,1-1.9,1.7-1.9,2.3-7.9,3.3-10.6,2.4-4.3-4.1-7.8-10.5-6.1-16.5.1-.3-.2-.4-.4-.6-.8.4-1.7,2.7-1.9,3.6-.4,1.6.2,3.2.5,4.8.4,1.2,1.3,3.9-1,3.2-2-1-.7-.9-3.3-1.2,1.1-.5.1-1.6-.6-2-.4-.2-.8-.3-1.2-.4-.9,0-1.8-.3-2.7-.2-.5,0-1-.1-1.4-.4-1-.5-2.2-.7-3.2-1.1-.3-.1-.8,0-.6.5.3.5.5.4.8.7-.3.7-.9,1-1.6,1.2-.4.1-.7.3-1,.6-.6.5-1.2.8-1.8,1.3-1.1,1-1.8,2.4-2.7,3.5-.9,1.3-2,2.3-3.1,3.4-1.8,1.8-3.5,4.7-6.2,4.9-2.7.4-1.9-2.4-3.1-3-.2,0-.4.1-.4.4.7,3,.3,5.2-.9,8-.2.6-.9.6-1.4.9,0-1.1.9-2.7.4-3.5-.3-.4-.5-1.1-1-1.2-1.4-.2.8,2.6-1.6,4.8-.7,1-2.3,1.3-3.4,1.2,1-.9.8-3.8,0-4.8-.9-1.7,1.7-4.7,3.5-4.3.6-.3-.2-1-.7-.8-2.7-.2-7,7-6.7,9.7-.4-.5-2.1-2.1-1.8-2.6,1.2-4.4-4.9-2,.9-7.9.5-.2,1.2-.1,1.7-.2,1.2-.2,2.4-.6,3.5-1.1.6-.4,1.3-.5,2.1-.5.2-1-1.1-1-1.8-1,2.9-2,5.4-4.6,7.4-7.4,2.6-2.8,6.6-3.2,10.1-3.9.6.1,1.2-.1,1.8-.2.5,0,1.2,0,1.4-.6-2.7-1.1-6.3-.8-9.2-.5,2-1.5,4.3-2.6,6.5-3.9.3,0,.2-.3.2-.5,0-.3,0-.3-.2-.3-2.3,0-4.6,1.1-6.6,2,2.1-2.9,4.3-5.8,5.8-9.1,0-.2.2-.4.3-.6.9-2.1,1.4-4.4,2-6.6.3-1.1.7-2.2,1.1-3.2.4-1,.9-2.2,1.7-2.9,0,.4.1.8.2,1.1.5,1.9,1.3,3.8,2.4,5.4.7,1,1.4,1.9,2.3,2.6.6.5,1.8,1.7,2.7,1.5,0,0,0,0,0-.1-.7-1-1.6-1.7-2.3-2.7-.7-.9-1.3-2-1.7-3.1-.3-.8-.6-1.7-.8-2.6-.2-.9-.2-1.8-.4-2.7-.1-.9.1-1.6.4-2.4.2-.9,1.2-1.5,1.8-2.2,1.1-1.1,1.9-2.3,2.6-3.6.4,2.5-.3,8,3.4,7.6,1.6-.2,3-.9,3.7-2.4-.2,1.7,0,3.5-.4,5.1-1,4.3,0,7.5,2.9,10.8.4.9,1.9,0,1.2-.5-.4-.2-.7-.5-.9-.9-1-2-1.5-4.2-1.6-6.5,0-1.5.2-2.9.5-4.3.3-1,.8-3.5.8-3.5,0,0,2.3.1,3.3.2,1,0,3.6-.1,3.6-.1,0,0-.4,8.8-.4,13.2-2-2.9-1.5-6.5-1.5-9.7,0-.2-.1-.2-.3-.2-.6,0-.6,2-.7,2.4,0,1,0,2,0,2.9.2,1.6.7,3.1,1,4.7.1.5.2,1,.3,1.5,0,.4.2,1,0,1.4-.4,1.2-1.5,1.9-2.1,2.9-.3.5-.7,1.1-.8,1.7.2.7.8,0,1-.3.5-.7,1.2-1.3,1.8-1.8,1-1.1,2.4-.7,3.7-.6.7,0,1.7.5,2.3.7.4.1.8.3,1.2.3.7,0,.2-.4-.2-.7-.9-.6-1.9-1.2-2.6-2-.5-.6-1.2-1.4-1.3-2.2-.3-1.5,0-3.2-.2-4.7-.1-1.4.4-2.7.6-4,0-.9,0-1.6,0-2.5,1.4,1.1,3.7,1.3,5,0,1.8-1.7,2.5-4.2,3.5-6.4.9-2.7.7-5.6,1.4-8.3.3-1.5.4-3,.7-4.5.2-.9.3-1.9.4-2.9.4-.9.7-1.9,1.2-2.8,0,5.8.5,6,3.1,11.1.5,2-.8,6.1-1.8,7.9-1.8,3.5-2.7,7.3-2.5,11.2,0,.3,0,1,.4,1,0,0,0-.1.1-.2,0-1.1.4-2.2.7-3.3.4-1.3.6-2.7,1.2-3.9.9-2,1.6-4.3,3.2-5.9.3-.3.4-.6.7-.9.3.8.2,1.7.3,2.5.5,2.5.2,5-.6,7.4-1.5,3.5-5.1,6.9-3.6,11,.3.7.8,1.1,1.5,1.4.3.1.6,0,.9,0,.9-.1,1.5-.9,1.6-1.8.1-.7.4-1.4.5-2.1.4-1.7,1.3-3.3,2.8-4.3.2-.2.5,0,.6.2.4.9.7,1.8,1.2,2.6.8,1.7,1.8,3.3,3.1,4.6.4.5.8,1,1.3,1.3,1.1.8,2,1.8,3,2.7.6.5,1.2,1.1,1.7,1.6.4.4,1.1,1.4,1.4.3,0-.2,0-.4-.1-.5-1.4-1.5-2.9-3-4.1-4.7-1.4-2.3-2.7-4.6-3.6-7.2-.6-2.6-1.1-5.3-1.8-7.9-.7-2.5-1.5-4.9-2.2-7.4,1.5,1.1,2.6,2.7,3.3,4.4.8,1.7,1.5,3.4,2.2,5.1M144.9,99.1c-.2-.6-.8-1.1-.6-1.8,2.1.5,1.2,2.8.6,1.8"/>
          <path class="cls-4" d="M107,16.7c1-1.6,3.6-3.6,5-1.4.5.8,1.3,1.4,1.5,2.4.5,1.3.4.7.4,2.2-.1,1.2-1.3,2-1.9,2.9-.2.2-.5.4-.6.6-.3.9-2.3.2-1.7,1.2.9,1.7.3,3.7.2,5.5,0,1.6,0,3.3-.5,4.8-.2.4.6.8.8.3,1.1-2.7,1.8-5.5,3.1-8.1,1-2.1,2.5-3.9,4.8-4.6.4,0,.8-.2,1.1-.3.3-.1.8,0,1.1-.2.6-.5,1.1-1,1.6-1.7,1,1.8,2.5.8,3.2,2.4.5,1.3,1.5.8,2.4,2,.2.7.7,1.1,1.1,1.6,0-.2.3-.2.3-.5,0-.2,0-.4-.2-.6-.4-.5-.6-1.1-.8-1.7-.9-1.5-1.3-3.4-2.9-4.4-1.1-.9-1.7-2.4-2-3.8-.4-.7,0-1.4.2-2.1.1-1.5.9-2.7,1.4-4,0-.2,0-.3-.1-.4-.3-.2-.6.3-.8.5-1,1.1-1.3,2.2-1.7,3.6,0,0,0,0,0,0-.2-2.4.7-5-.6-7.3-.2-.2-.3-.4-.6-.2,0,.6.3,1.2.4,1.9,0,1.7-.1,3.3-.1,5,0,0,0,0,0,0-.2-.3-.3-.7-.5-.9-.8-1.1-1.2-2.5-1.2-3.9,0-.2.5-2.4-.1-1.9-1.8,2.4-.1,5.4,1.3,7.5.6,1.1.4,4.2-.5,5.1-1.8,1.9-3.8,3.5-5.6,5.3-1.2,1.3-1.9,2.9-2.7,4.5.1-3.2,3-5.2,4.4-7.8.3-.5.7-.8.9-1.2.2-.3-.2-.9-.6-.5-.2.1-.9.2-.9,0-.1-.5-.1-1-.2-1.5,0-.4-.3-.8-.2-1.2,0-.2,0-.3,0-.5,0-.4.1-.7.2-1.1.1-.9-.3-1.5-.7-2.2-.2-.3-.4-.7-.7-.9-.2-.2-.5-.3-.8-.5-.7-.4-1.2-.4-2-.1-.4.1-1,.6-1,1.1,0,.3.4.5.7.4.2,0,.3-.2.4-.3.4-.2,1-.2,1.5,0,.4.1.7.5,1,.8.3.4.5.8.6,1.3,0,.2,0,.5,0,.7,0,0,0,.5,0,.6-.9-1.3-2.3-2.6-4-2.1-.8.4-1.6.8-2.3,1.4-.3.3-.6.5-.8.9-.2.3-.4.7-.6.9,0,0-.1.1-.1.2,0,0,0,.1,0,.2,0,.4.3.8.6.3"/>
          <path class="cls-4" d="M120.8,24.7c-.9.1-1.8.4-2.6.9-.9.6-1.4,1.4-2,2.3,0,.2-.2.3-.2.5-.3,1.1.5,2.5,1.6,2.8.8.2,1.9.3,2.7,0,.6-.3,1.3-.3,2-.3.9,0,1.1.6,2.2.4,1.6-.5,2.3-1,2.6-2.8.1-.8-.6-1.9-1.1-2.4-1.3-1.3-3.3-1.7-5.1-1.4M124.6,26.7c.5.3.9,1.3,1.1,1.8,0,.3,0,1.5-.7,1.1-.2-.1-.3-.8-.5-1-.2-.2-.4-.3-.8-.3-.2,0-.4.1-.5.2-.1.1-.2.3-.3.4-.1.2-.1.6-.1.9,0,0,0,0,0,0-.9.3-.3-.9-.6-1.3,0,0,0,0,0,0-.2-.3-.3-.2-.5,0,0,.1-.3,1.4-.3,1.4-.9.1-.4-.8-.6-1.4-.2-.6-1-.7-1.5-.5-.6.2-.4.8-1.1,1-1,.3-.6-1.3-.2-1.7.4-.4,1.2-.7,1.4-.8.9-.3,1.4-.4,2.3-.4s2.1,0,2.7.5"/>
          <path class="cls-4" d="M130.3,11.1c-.6,0-1.2,0-1.7.2-.8.2-1.1,1.1-1.4,1.7,0,.2,0,.3,0,.4.6.4.6-1,2.3-1.4.5-.2,1,.2,1.4.5.4.2.4.5.4.9-2.5.4-3.4,3.1-4.1,5.2-.4-.5-1.6-.5-1.2.2.5.7,1,1.4,1.4,2.2.1.3.2.6.6.7.2,0,.4,0,.3-.3,0-1.1-.1-2.4.3-3.5.6-.9,1.3-1.8,2.1-2.4.8-.8,2.6.1,2.9-.8.3-1-.6-1.7-.8-2.5,0-.2-.4-.2-.6-.5-.6-.6-1.4-.4-2.1-.4"/>
          <path class="cls-4" d="M135.9,17.8c-.3.3-.2.9.2,1.1.3.2.4.5.4.8,0,1.4-1.4,4.1-3,4.1-.3,0-.9.4-.8.7.7,1.4,1.3,3,1.3,4.6,0,0,0,.1,0,.1.2.2.2.4.2.6,0,0,0,.2.1.2.5,0,.4-.8.5-1.2.2-1.3.5-2.6,1.1-3.8.2-.5.4-1,.6-1.5.1-.3.3-.6.2-1,.5-1.8,1.2-3.9.1-5.6-.2-.4-.2-1-.8-1.2-.3-.2-.5-.3-.9,0,.4.7,1.3,1.1.6,2"/>
          <path class="cls-4" d="M108.3,32.6c.1,0,.3-.2.4-.4.2-.3.3-.7.3-1,0-.3,0-.6,0-.9,0-.4-.3-.8-.4-1.2-.1-.3-.2-.7-.3-1,0-.2-.2-.5-.3-.7-.4-.7-.8-1.4-1.1-2.1-.3-.8-.6-1.5-.8-2.4,0-.2-.1-.5-.2-.7-.2-.6-.3-1.2-.4-1.8,0-.1,0-.2,0-.3,0,0,0,0,0-.1,0-.2.2-.3.2-.5h0c0-.2-.2-.3-.3-.5-.1-.2-.2-.4-.3-.6-.1-.6.1-1,0-1.3,0-.2-.3-.3-.4,0-.2.3-.2.7-.3,1,0,.3-.1.6-.2.9-.4,2.1.2,4.2,1,6.2,0,.2.2.3.3.5.3.5.6.9.8,1.5.4.8.7,1.7,1,2.6.1.4.2.8.3,1.2,0,.4.2.8.3,1.2,0,.2.2.7.5.7"/>
          <path class="cls-4" d="M111.4,21c.6-.4,1.1-1.1,1.5-1.6-.2-.3-.3-.3-.4-.7,0-.3-.2-.6-.4-.8-.4-.5-.9-.9-1.5-1.1-.4-.2-.9-.2-1.4-.1-.6.1-1.1.6-1.5,1-.3.3-.6.6-.9.9-.1.1-.4.4-.5.6-.1.4.3.4.6.5.9.5,1.6,1.5,2.6,1.7.6.1,1.2,0,1.6-.4M110.5,18.2c0,.3.2.5-.3.4,0-.3,0-.7.3-.4M110,19.2c.2,0,.6,0,.7.2.2.4-.3.5-.6.7-.3,0-.7-.4-1-.6.3-.2.6-.3.9-.2"/>
          <path class="cls-4" d="M131.8,16.4c-.7.2-1.3.9-1.6,1.5-.2.4-.3.8-.6,1.2-.2.2-.5.3-.3.7.2.4.6.5,1,.7.5.2.9.5,1.4.6.5.1,1.1.2,1.5,0,.9-.4,1.6-1.5,1.9-2.4,0-.2-.5-.8-.6-.9-.3-.4-.6-.7-1-1-.5-.3-1.1-.5-1.7-.4M131.7,17.9c.5,0,.6,0,.6.4-.5.1-.7,0-.6-.4M131.4,19.4c0-.1,0-.2.1-.3.6,0,1.1.1,1.6.2-.3,1.3-1,.7-1.8,0"/>
          <path class="cls-4" d="M121.1,2.7c0,.2.3.2.5.4.3.2.5.4.7.6.1.1.3.3.4.4.8.7,1.8,1.1,2.7,1.6.6.3,1,.8,1.4,1.3.6.7,1.1,1.4,1.8,1.9.3.2.7.4,1,.2.3-.3-.3-.6-.5-.9-.1-.1-.2-.2-.3-.3-.5-.6-1.1-1.1-1.7-1.8-.2-.3-.3-.4.2-.4.6,0,1.2,0,1.8.2.2,0,.4.1.6.2.5.2,1.5,1.2,1.9.7.1-.2,0-.5,0-.7-.2-.4-.6-.5-.9-.7-1.8-1.1-4.1-.8-6-1.6-.6-.2-1.1-.5-1.6-.8-.3-.2-.7-.3-1-.5-.2-.1-.4-.2-.6-.2-.2,0-.4.3-.4.5h0Z"/>
          <path class="cls-4" d="M111.5,7.8c.3,0,.5-.3.8-.5.3-.3.7-.5,1.1-.7.3-.1.6-.2,1-.4.9-.4,1.7-.8,2.6-1.3.5-.3,1-.6,1.4-.9.3-.2.5-.5.8-.8.2-.2.4-.4.4-.6,0-.2-.3-.4-.5-.3h0c-.2,0-.4.3-.6.4-.2.1-.3.2-.5.3-.2.2-.4.3-.6.5-1.8,1.5-4.3,1.9-6.1,3.6-.2.3,0,.6.3.7"/>
        </g>
      </g>
    </g>
  </g>
</svg>