<?xml version="1.0" encoding="UTF-8"?>
<!-- Generator: Adobe Illustrator 28.0.0, SVG Export Plug-In . SVG Version: 6.00 Build 0)  -->
<svg xmlns="http://www.w3.org/2000/svg" xmlns:xlink="http://www.w3.org/1999/xlink" version="1.1" id="Calque_1" x="0px" y="0px" viewBox="0 0 84 18" style="enable-background:new 0 0 84 18;" xml:space="preserve"><script xmlns=""/>
<style type="text/css">
	.st0{fill:#FFFEF4;}
</style>
<g>
	<path class="st0" d="M2.5,1.2l15.6-0.9l0.7,17.3L0,17.4L0.4,5.9L2.5,1.2z"/>
	<path class="st0" d="M32.3,7.5V10h-6.1v5.3h8.5v2.4H22.5V0.3h12v2.4h-8.3v4.8H32.3z"/>
	<path class="st0" d="M48.9,17.7H38V0.3h3.7v14.9h7.3V17.7z"/>
	<path class="st0" d="M65,12.4C64.1,16,61.1,18,57.8,18c-2,0-4-0.6-5.4-1.9C51,14.7,50,12.4,50,8.9c0-3.1,0.9-5.4,2.4-6.9   c1.4-1.3,3.2-2,5.4-2c3.4,0,6.2,1.7,6.9,5.4l-3.7,0.3c-0.5-2.1-1.4-3.3-3.2-3.3c-2.3,0-4,1.8-4,6.6c0,4.8,1.9,6.5,4,6.5   c2.1,0,3.1-1.7,3.4-3.6L65,12.4L65,12.4z"/>
	<path class="st0" d="M76.5,6.5c-0.4-1.3-0.8-2.6-1.2-4.1h-0.2c-0.4,1.5-0.8,2.8-1.1,4.1l-1.2,4.1h4.9L76.5,6.5z M72,13.1l-1.3,4.6   h-4l6.1-17.3h5l6.1,17.3h-4l-1.4-4.6H72z"/>
</g>
</svg>