<?xml version="1.0" encoding="UTF-8"?>
<svg xmlns="http://www.w3.org/2000/svg" version="1.1" viewBox="0 0 97 73">
  <defs>
    <style>
      .cls-1 {
        fill: #fffdf4;
      }
    </style>
  </defs>
  <!-- Generator: Adobe Illustrator 28.7.1, SVG Export Plug-In . SVG Version: 1.2.0 Build 142)  -->
  <g>
    <g id="Calque_1">
      <g id="Calque_2-2">
        <path class="cls-1" d="M71.3,55h-16.9v5.2h11.7v.3c-1.6,4.5-5.2,7.1-10.9,7.1s-11.6-5.3-11.6-12,5.2-12.4,12-12.4,9,2.6,11.1,7.2l4.8-2.2c-3-6.5-8.7-10-16-10s-17.4,7.7-17.4,17.5,7.4,17,16.9,17,8.7-2,11.4-5.1l.5,3.9h4.2v-16.1s0,0,0,0v-.3h0Z"/>
        <polygon class="cls-1" points="71.3 27 44.7 27 44.7 18.5 68.3 18.5 68.3 13.6 44.7 13.6 44.7 5.1 71.3 5.1 71.3 0 39.2 0 39.2 32.1 71.3 32.1 71.3 27"/>
        <polygon class="cls-1" points="26.6 13.3 5.4 13.3 5.4 0 0 0 0 32.1 5.4 32.1 5.4 18.4 26.6 18.4 26.6 32.1 32.1 32.1 32.1 0 26.6 0 26.6 13.3"/>
        <polygon class="cls-1" points="18.8 66.2 18.8 44.4 32.1 44.4 32.1 39.2 0 39.2 0 44.4 13.3 44.4 13.3 66.2 0 66.2 0 71.3 32.1 71.3 32.1 66.2 18.8 66.2"/>
        <path class="cls-1" d="M85.1,0h2.2l-3.4,9.2h-2.1L78.5,0h2.3l2.2,6.5L85.1,0Z"/>
        <path class="cls-1" d="M89,9.2V0h3.3C95.1,0,96.9,1.8,96.9,4.6s-1.9,4.6-4.6,4.6h-3.3,0ZM92.2,7.2c1.4,0,2.6-.8,2.6-2.7s-1.2-2.7-2.6-2.7h-1.2v5.3h1.2Z"/>
      </g>
    </g>
  </g>
</svg>