<?xml version="1.0" encoding="UTF-8"?>
<svg xmlns="http://www.w3.org/2000/svg" version="1.1" viewBox="0 0 219 43">
  <defs>
    <style>
      .cls-1 {
        fill: #fffdf4;
      }
    </style>
  </defs>
  <!-- Generator: Adobe Illustrator 28.7.1, SVG Export Plug-In . SVG Version: 1.2.0 Build 142)  -->
  <g>
    <g id="Calque_1">
      <g id="Calque_4">
        <path class="cls-1" d="M117.2,26.7c-.6-2.4-2.3-4.7-2.7-7.2,0,0,.1,0,.1,0,1.3-5-.5-9.9-1.9-15C112.2,3,111.9,1.5,111.7,0H0v42.8h118c.2-5.4.5-10.7-.8-16.1ZM99.2,6.1h13.1l.6,2.8h-4.5v20.1h-4.7V8.9h-4.5v-2.8h0ZM82.9,10c0-2.6,1.9-3.9,5.6-3.9h3c3.7,0,5.6,1.3,5.6,3.9v2.6h-4.7v-2.4c0-.9-.7-1.3-2.1-1.3h-.9c-1.2,0-1.9.4-1.9,1.3v14.6c0,.9.6,1.3,1.9,1.3h1.2c1.2,0,1.9-.4,1.9-1.3v-1.2h4.7v1.5c0,2.6-1.9,3.9-5.6,3.9h-3c-3.7,0-5.6-1.3-5.6-3.9v-15.1h0ZM64.3,10.1c0-2.6,1.9-3.9,5.6-3.9h3.5c3.7,0,5.6,1.3,5.6,3.9v18.9h-4.7v-8.4h-5.4v8.4h-4.7V10.1ZM46.6,6.1h8.6c3.8,0,5.7,1.3,5.7,3.9v6.8c0,2.6-1.9,3.9-5.6,3.9h-3.9v8.3h-4.7V6.1h0ZM23.1,6.1h5.2l4.4,13.4,4.3-13.4h5.2v22.8h-4.7l.5-15-3.5,10.8h-3.6l-3.5-10.8.5,15h-4.7V6.1h0ZM14,6.1h4.7v22.8h-4.7V6.1ZM117.9,32.8H12.9v-.3h105v.3h0Z"/>
        <path class="cls-1" d="M56.1,16.6v-6.4c0-.9-.7-1.3-2.1-1.3h-2.7v9h3c1.2,0,1.9-.4,1.9-1.3h0Z"/>
        <path class="cls-1" d="M74.3,10.3c0-.9-.7-1.3-2.1-1.3h-1.3c-1.4,0-2.1.4-2.1,1.3v7.6h5.4v-7.6Z"/>
        <path class="cls-1" d="M175.8,26.2h2.4c1.2,0,1.9-.4,1.9-1.3v-14.6c0-.9-.7-1.3-2.1-1.3h-2.2c-1.4,0-2.1.4-2.1,1.3v14.6c0,.9.7,1.3,2.1,1.3Z"/>
        <path class="cls-1" d="M111.7,0c.2,1.5.5,3,1,4.5,1.4,5.1,3.2,10,1.9,15,0,0-.1,0-.1,0,.4,2.5,2.1,4.8,2.7,7.2,1.3,5.4,1,10.8.8,16.1h101.4V0h-107.7ZM188.9,6.1h4.7l5,11V6.1h4.7v22.8h-4.7v-4.6l-5-10.4v15h-4.7V6.1ZM169,10.1c0-2.6,1.9-3.9,5.6-3.9h4.5c3.7,0,5.6,1.3,5.6,3.9v15c0,2.6-1.9,3.9-5.7,3.9h-4.4c-3.8,0-5.7-1.3-5.7-3.9v-15ZM160.1,6.1h4.7v22.8h-4.7V6.1ZM142,23.6h4.7v1.2c0,.9.7,1.3,2.1,1.3h.8c1.2,0,1.9-.4,1.9-1.3v-3.9c0-.4-.1-.7-.4-.9-.3-.1-.7-.3-1.3-.6l-4.4-1.6c-1-.3-1.7-.6-2.1-.9-.4-.2-.8-.5-1-.9-.2-.4-.3-.9-.3-1.4v-4.7c0-2.6,1.9-3.9,5.6-3.9h2.9c3.7,0,5.6,1.3,5.6,3.9v2.2h-4.7v-2c0-.9-.7-1.4-2.1-1.4h-.7c-1.3,0-2,.5-2,1.4v3.8c0,.4.1.7.4.9.3.1.7.3,1.3.6l4.4,1.6c1,.4,1.7.6,2.1.8.4.2.7.4,1,.7.2.3.3.8.3,1.6v4.9c0,2.6-1.9,3.8-5.7,3.8h-2.9c-3.7,0-5.6-1.4-5.6-4.2v-1.1h0ZM133.4,6.1h4.7v22.8h-4.7V6.1h0ZM113.8,6.1h4.6l3.8,17.4,3.8-17.4h4.6l-8.5,32.1-8.5-32.1h0ZM203.9,32.8h-76.7v-.3h76.7v.3Z"/>
      </g>
    </g>
  </g>
</svg>