<?xml version="1.0" encoding="UTF-8"?>
<svg xmlns="http://www.w3.org/2000/svg" version="1.1" viewBox="0 0 234 52.5">
  <defs>
    <style>
      .cls-1 {
        fill-rule: evenodd;
      }

      .cls-1, .cls-2 {
        fill: #fffdf4;
      }
    </style>
  </defs>
  <!-- Generator: Adobe Illustrator 28.7.1, SVG Export Plug-In . SVG Version: 1.2.0 Build 142)  -->
  <g>
    <g id="Calque_1">
      <g>
        <g>
          <path class="cls-1" d="M0,33.6c0-1.5,1.1-2.9,2.6-3.2,2.2-.5,3.9-2.4,3.9-4.7s-1.6-4.3-3.9-4.7c-1.5-.3-2.6-1.6-2.6-3.2V4.8C0,2.2,2.2,0,4.8,0h67.6c1.3,0,2.5.5,3.4,1.4.9.9,1.4,2.1,1.4,3.4v13c0,1.5-1.1,2.9-2.6,3.2-2.2.5-3.9,2.4-3.9,4.7s1.6,4.3,3.9,4.7c1.5.3,2.6,1.6,2.6,3.2v13c0,2.7-2.2,4.8-4.8,4.8H4.8c-2.7,0-4.8-2.2-4.8-4.8v-13ZM59.7,8c0-1.3-1.1-2.4-2.4-2.4s-2.4,1.1-2.4,2.4,1.1,2.4,2.4,2.4c1.3,0,2.4-1,2.4-2.4ZM57.3,17.4c1.4,0,2.4,1.1,2.4,2.4s-1.1,2.4-2.4,2.4-2.4-1.1-2.4-2.4c0-1.3,1-2.4,2.4-2.4ZM59.7,31.6c0-1.3-1.1-2.4-2.4-2.4s-2.4,1.1-2.4,2.4,1.1,2.4,2.4,2.4,2.4-1.1,2.4-2.4ZM57.3,41c1.4,0,2.4,1.1,2.4,2.4s-1.1,2.4-2.4,2.4-2.4-1.1-2.4-2.4,1-2.4,2.4-2.4ZM26.4,13.4h-7v24.8h7v-4.6l2.6-2.6,3.6,7.2h7.8l-6.8-11.6,6.5-6.3h-8.5l-5.1,6v-12.8Z"/>
          <path class="cls-2" d="M85,3.9h4.9v3.4h-4.9v-3.4ZM85,8.8h4.9v12.9h-4.9v-12.9Z"/>
          <path class="cls-2" d="M93.1,8.8h4.6v2.1c.7-.9,1.4-1.5,2.1-1.8.7-.4,1.5-.5,2.6-.5s2.4.4,3.2,1.2,1.2,2,1.2,3.7v8.2h-5v-7.1c0-.8-.2-1.4-.5-1.7-.3-.3-.7-.5-1.3-.5s-1.1.2-1.5.7c-.4.5-.5,1.3-.5,2.4v6.2h-4.9v-12.9Z"/>
          <path class="cls-2" d="M115.2,8.8h2.4v3.6h-2.4v9.3h-4.9v-9.3h-1.9v-3.6h1.9v-.6c0-.5,0-1.1.2-1.7s.3-1.2.6-1.5c.3-.4.7-.7,1.3-1s1.4-.4,2.5-.4,2.1.1,3.8.3l-.5,3c-.6-.1-1.1-.2-1.4-.2s-.8,0-1,.2-.3.4-.4.7c0,.2,0,.6,0,1.2Z"/>
          <path class="cls-2" d="M118.8,15.3c0-2,.7-3.6,2-4.8,1.3-1.3,3.1-1.9,5.4-1.9s4.5.7,5.8,2.2c1,1.2,1.6,2.7,1.6,4.4s-.7,3.6-2,4.9c-1.3,1.3-3.1,1.9-5.4,1.9s-3.7-.5-5-1.6c-1.6-1.3-2.4-3-2.4-5.1h0ZM123.7,15.3c0,1.2.2,2,.7,2.6.5.5,1,.8,1.8.8s1.3-.3,1.7-.8c.5-.5.7-1.4.7-2.6s-.2-1.9-.7-2.5c-.5-.5-1-.8-1.7-.8s-1.3.3-1.8.9c-.5.5-.7,1.4-.7,2.5Z"/>
          <path class="cls-2" d="M136,8.8h4.6v1.9c.7-.8,1.3-1.4,2-1.7.7-.3,1.5-.5,2.4-.5s1.9.2,2.4.5,1.1.9,1.5,1.6c.8-.9,1.5-1.4,2.1-1.7s1.4-.5,2.4-.5c1.4,0,2.5.4,3.2,1.2s1.2,2.1,1.2,3.8v8.1h-4.9v-7.3c0-.6-.1-1-.3-1.3-.3-.5-.7-.7-1.2-.7s-1,.2-1.4.6-.5,1.1-.5,2v6.6h-4.9v-7c0-.6,0-1-.1-1.2-.1-.3-.3-.6-.5-.8-.3-.2-.6-.3-.9-.3-.6,0-1,.2-1.4.7-.3.4-.5,1.1-.5,2.1v6.6h-4.9v-12.9Z"/>
          <path class="cls-2" d="M165.3,13l-4.7-.5c.2-.8.4-1.5.8-1.9s.8-.9,1.5-1.2c.5-.2,1.1-.4,1.9-.6s1.7-.2,2.6-.2c1.5,0,2.7,0,3.6.3.9.2,1.7.5,2.2,1,.4.3.7.9,1,1.5.2.7.3,1.3.3,1.9v5.7c0,.6,0,1.1.1,1.4,0,.3.3.8.5,1.3h-4.6c-.2-.3-.3-.6-.3-.7,0-.2-.1-.5-.2-.8-.7.6-1.3,1.1-1.9,1.4-.9.3-1.9.5-3.1.5s-2.7-.3-3.5-1.1c-.8-.7-1.2-1.6-1.2-2.6s.3-1.8.9-2.4,1.6-1.1,3.2-1.4c1.9-.4,3.1-.6,3.6-.8s1.1-.3,1.7-.6c0-.6-.1-1-.4-1.3-.3-.2-.7-.3-1.3-.3s-1.4.1-1.8.4c-.3,0-.5.4-.7,1h0ZM169.6,15.6c-.7.2-1.4.5-2.1.7-1,.3-1.6.5-1.9.8-.3.3-.4.6-.4.9s.1.7.4,1c.3.2.7.3,1.2.3s1-.1,1.5-.4c.5-.3.8-.6,1-1s.3-.9.3-1.5v-.8Z"/>
          <path class="cls-2" d="M177.4,8.8h4.6v2.1c.7-.9,1.4-1.5,2.1-1.8.7-.4,1.5-.5,2.6-.5s2.4.4,3.2,1.2,1.2,2,1.2,3.7v8.2h-5v-7.1c0-.8-.2-1.4-.5-1.7-.3-.3-.7-.5-1.3-.5s-1.1.2-1.5.7-.5,1.3-.5,2.4v6.2h-4.9v-12.9Z"/>
          <path class="cls-2" d="M194.2,3.9h4.9v3.4h-4.9v-3.4ZM194.2,8.8h4.9v12.9h-4.9v-12.9Z"/>
          <path class="cls-2" d="M206.8,13l-4.7-.5c.2-.8.4-1.5.8-1.9s.8-.9,1.5-1.2c.5-.2,1.1-.4,1.9-.6.8-.2,1.7-.2,2.6-.2,1.5,0,2.7,0,3.6.3.9.2,1.7.5,2.2,1,.4.3.8.9,1,1.5s.3,1.3.3,1.9v5.7c0,.6,0,1.1.1,1.4s.2.8.5,1.3h-4.6c-.2-.3-.3-.6-.3-.7,0-.2-.1-.5-.2-.8-.7.6-1.3,1.1-1.9,1.4-.9.3-1.9.5-3.1.5s-2.7-.3-3.5-1.1c-.8-.7-1.2-1.6-1.2-2.6s.3-1.8.9-2.4c.6-.6,1.6-1.1,3.2-1.4,1.9-.4,3.1-.6,3.6-.8.5-.2,1.1-.3,1.7-.6,0-.6-.1-1-.4-1.3-.2-.2-.7-.3-1.3-.3s-1.4.1-1.8.4c-.3,0-.5.4-.7,1h0ZM211.1,15.6c-.7.2-1.4.5-2.1.7-1,.3-1.6.5-1.9.8-.3.3-.4.6-.4.9s.1.7.4,1c.3.2.7.3,1.2.3s1-.1,1.5-.4c.5-.3.8-.6,1-1s.3-.9.3-1.5v-.8h0Z"/>
          <path class="cls-2" d="M218.8,3.9h5.1v9.2l3.7-4.3h6.1l-4.6,4.5,4.9,8.3h-5.6l-2.6-5.2-1.9,1.8v3.4h-5.1V3.9Z"/>
        </g>
        <g>
          <path class="cls-2" d="M84.9,29.6v18h12.2v-2.2h-9.7v-6h9.1v-2.2h-9.1v-5.4h9.7v-2.2h-12.2Z"/>
          <path class="cls-2" d="M104.2,44.5l-3.6-10.2h-2.5l5.1,13.4h2l5.1-13.4h-2.3l-3.7,10.2Z"/>
          <path class="cls-2" d="M113.2,41.7h10.3c.3-4.2-2.2-7.7-6.3-7.7s-6.5,2.7-6.5,6.9,2.3,7,6.6,7,5.4-1.9,6-4.2h-2.3c-.6,1.3-1.7,2.2-3.7,2.2s-4-1.3-4.1-4.2h0ZM113.2,39.7c.2-2.7,2-3.8,4-3.8s3.8,1.9,3.9,3.8h-7.9Z"/>
          <path class="cls-2" d="M128.4,36.2v-2h-2.3v13.4h2.3v-7.3c0-2.9,1.4-4.4,3.5-4.4s2.9,1.8,2.9,3.9v7.8h2.3v-8.4c0-3.1-1.2-5.1-4.4-5.1-2.2,0-3.6,1-4.3,2.2h0Z"/>
          <path class="cls-2" d="M141.2,30.9v3.4h-2.1v1.8h2.1v8.2c0,2.8.6,3.4,3.2,3.4h1.6v-1.9h-1.2c-1.3,0-1.4-.3-1.4-1.7v-8h2.6v-1.8h-2.6v-3.3h-2.2Z"/>
          <path class="cls-2" d="M156.3,38.1h2.4c-.4-2.6-2.4-4.1-5.3-4.1s-5.3,1.4-5.3,3.7,2,3.3,3.8,3.7l2,.4c1.4.3,2.7.9,2.7,2.2s-1.4,2-3.1,2-3.1-1-3.4-2.7h-2.4c.2,2.3,2.2,4.6,5.8,4.6s5.4-1.5,5.4-4.1-2.1-3.5-4.6-4l-1.9-.4c-1.3-.2-2-.7-2-1.8s1.5-1.7,2.8-1.7c1.5,0,2.8.7,3.1,2.3h0Z"/>
        </g>
      </g>
    </g>
  </g>
</svg>