<?xml version="1.0" encoding="UTF-8"?>
<svg xmlns="http://www.w3.org/2000/svg" version="1.1" viewBox="0 0 53 34">
  <defs>
    <style>
      .cls-1 {
        fill: #fffdf4;
      }
    </style>
  </defs>
  <!-- Generator: Adobe Illustrator 28.7.1, SVG Export Plug-In . SVG Version: 1.2.0 Build 142)  -->
  <g>
    <g id="Calque_1">
      <g id="Logo">
        <polygon class="cls-1" points="24 13.3 24 0 9.7 0 9.7 10.1 0 10.1 0 23.9 9.7 23.9 9.7 34 24 34 24 20.7 20.6 20.7 20.6 30.8 13.1 30.8 13.1 20.7 3.4 20.7 3.4 13.3 13.1 13.3 13.1 3.2 20.6 3.2 20.6 13.3 24 13.3"/>
        <path class="cls-1" d="M43.6,12.1c0,2.4-2,4.3-4.5,4.3h-3.8v-8.3h3.7c2.7,0,4.6,1.7,4.6,4ZM40.7,0h-14.7v34h9.2v-10.1h5.5c6.8,0,12-5.2,12-11.8S47.4,0,40.7,0Z"/>
      </g>
    </g>
  </g>
</svg>