<?xml version="1.0" encoding="UTF-8"?>
<svg xmlns="http://www.w3.org/2000/svg" version="1.1" viewBox="0 0 190 57">
  <defs>
    <style>
      .cls-1 {
        fill: #fffdf7;
      }
    </style>
  </defs>
  <!-- Generator: Adobe Illustrator 28.7.1, SVG Export Plug-In . SVG Version: 1.2.0 Build 142)  -->
  <g>
    <g id="Calque_1">
      <g id="Calque_3">
        <path class="cls-1" d="M53.8,0H14.7C7.5,0,1,5.8.1,13c-.9,7.2,4.2,12.9,11.4,12.9h10.6l-5.2-5.2-.2-.2c-1.5-1.5-1.5-4,0-5.5,1.5-1.5,4-1.5,5.5,0l11.1,11.1-5.5,5.5h0s-5.4,5.4-5.4,5.4l-.2.2c-.1.1-.2.2-.3.3l-.8,6.1c-.9,7.2,4.2,13,11.4,13s13.6-5.5,14.6-12.7c0-.1.3-2.2.8-5.3-1.3.4-3.2.9-6.1.8-1.8,0-3.1-.8-4.1-1.8-1-1.1-1.5-2.6-1.5-4.5s0-1,.2-1.6l3-14.3h-2.9l.8-3.5h2.9l1.2-5.7,5.1-1.9-1.8,7.6h7.1l2.1-13.6Z"/>
        <path class="cls-1" d="M51.2,17.1h-7.4l-2.6,12.5c-.2,1-.3,1.7-.3,2.3,0,2.4,1.2,3.6,3.6,3.6s2.8-.6,4.1-1.1l2.7-17.3h0Z"/>
        <path class="cls-1" d="M75.9,16.8s-2.2-.8-4.7,0c-2.2.6-4,2.4-4,2.4l.3-2.3h-4.5l-3.5,22.1h4.6l1.8-12.3s.8-4.6,4-5.9c3.1-1.2,4.8.8,4.8.8l1.3-4.8h0Z"/>
        <path class="cls-1" d="M99.8,31.3c.6-2.9,2.7-13,2.7-13,0,0-3.4-2.9-9.5-1.9-6.3,1-10.1,6-11.1,13.6-1.1,8.7,5.6,9.4,7.8,9.3,3.3-.2,5.6-1.9,5.6-1.9,0,0,.1.4.3.8.2.4.4.8.4.8h5s-1.8-4.4-1.2-7.6M96,26.3c-.7,3.3-1.1,5.2-3.1,7.5-1.4,1.7-5.8,2.4-6-1.5-.2-4.7,1.6-8.7,4-10.6,2.6-2.1,6.3-.8,6.3-.8,0,0-.4,2.1-1.1,5.3"/>
        <polygon class="cls-1" points="121.2 28.1 118 16.6 111.4 16.6 118.2 39.2 121.2 39.2 135.4 16.6 128 16.6 121.2 28.1"/>
        <path class="cls-1" d="M142.6,16.6h7l2.4,12.5,6-12.5h7.7l-11,22.5s-2,4.9-5.8,6.8c-3.5,1.7-8.2,1.6-8.2,1.6v-6.6s3.6,0,5.3-.9c1.9-1,2.6-3.6,2.6-3.6,0,0-2.2-1.3-2.9-4.4-.6-2.5-3.1-15.3-3.1-15.3"/>
        <path class="cls-1" d="M173.3,30.6s2.9,3.2,5.4,3c2.2-.2,2.4-1.8,1.5-2.4-.9-.6-6.9-3.2-7.4-6.1-.5-3.3.8-7.6,6.5-9,4.8-1.2,10.8,1.9,10.8,1.9l-3.4,6.8s-2.4-2.5-4.5-2.6c-1.8-.1-3.2.9-.7,2.1,2.5,1.3,5.4,2.5,6.3,5,.9,2.5.4,10.7-10,10.7s-8.3-2.6-8.3-2.6l3.8-6.6h0Z"/>
      </g>
    </g>
  </g>
</svg>