<?xml version="1.0" encoding="UTF-8"?>
<svg xmlns="http://www.w3.org/2000/svg" version="1.1" viewBox="0 0 85 96">
  <defs>
    <style>
      .cls-1 {
        fill-rule: evenodd;
      }

      .cls-1, .cls-2 {
        fill: #fff;
      }
    </style>
  </defs>
  <!-- Generator: Adobe Illustrator 28.7.1, SVG Export Plug-In . SVG Version: 1.2.0 Build 142)  -->
  <g>
    <g id="Calque_1">
      <g id="Calque_1-2">
        <path class="cls-2" d="M0,0v95.4h85V0H0ZM78.4,3.1c-3.8.5-6.5,2.2-10.7,2.2s-6.9-1.8-10.7-2.2h21.5ZM53.3,3.1c-3.8.5-6.5,2.2-10.7,2.2s-6.9-1.8-10.7-2.2h21.5ZM28.1,3.1c-3.8.5-6.5,2.2-10.7,2.2s-6.9-1.8-10.7-2.2h21.5ZM3.1,43.8c.6,0,1.1-.1,1.7-.1,4.3,0,7,2,10.9,2.4H3.1v-2.3ZM81.9,92.4H3.1v-43.1h78.8v43.1ZM19,46.2c3.9-.5,6.6-2.4,10.9-2.4s7,2,10.9,2.4h-21.9ZM44.2,46.2c3.9-.5,6.6-2.4,10.9-2.4s7,2,10.9,2.4h-21.9ZM81.9,46.2h-12.7c3.9-.5,6.6-2.4,10.9-2.4s1.2,0,1.7.1v2.3ZM81.9,38.3c-.5,0-1.1-.1-1.7-.1-4.9,0-7.6,2.5-12.6,2.5s-7.6-2.5-12.6-2.5-7.6,2.5-12.6,2.5-7.6-2.5-12.6-2.5-7.6,2.5-12.6,2.5-7.6-2.5-12.6-2.5-1.2,0-1.7.1v-3.3c.6,0,1.1-.1,1.7-.1,4.9,0,7.6,2.5,12.6,2.5s7.6-2.5,12.6-2.5,7.6,2.5,12.6,2.5,7.6-2.5,12.6-2.5,7.6,2.5,12.6,2.5,7.6-2.5,12.6-2.5,1.2,0,1.7.1v3.3ZM81.9,29.5c-.5,0-1.1-.1-1.7-.1-4.9,0-7.6,2.5-12.6,2.5s-7.6-2.5-12.6-2.5-7.6,2.5-12.6,2.5-7.6-2.5-12.6-2.5-7.6,2.5-12.6,2.5-7.6-2.5-12.6-2.5-1.2,0-1.7.1v-3.3c.6,0,1.1-.1,1.7-.1,4.9,0,7.6,2.4,12.6,2.4s7.6-2.4,12.6-2.4,7.6,2.4,12.6,2.4,7.6-2.4,12.6-2.4,7.6,2.4,12.6,2.4,7.6-2.4,12.6-2.4,1.2,0,1.7.1v3.3h0ZM81.9,20.7c-.5,0-1.1-.1-1.7-.1-4.9,0-7.6,2.4-12.6,2.4s-7.6-2.4-12.6-2.4-7.6,2.4-12.6,2.4-7.6-2.4-12.6-2.4-7.6,2.4-12.6,2.4-7.6-2.4-12.6-2.4-1.2,0-1.7.1v-3.3c.6,0,1.1-.1,1.7-.1,4.9,0,7.6,2.4,12.6,2.4s7.6-2.4,12.6-2.4,7.6,2.4,12.6,2.4,7.6-2.4,12.6-2.4,7.6,2.4,12.6,2.4,7.6-2.4,12.6-2.4,1.2,0,1.7,0v3.3ZM81.9,11.9c-.5,0-1.1,0-1.7,0-4.9,0-7.6,2.4-12.6,2.4s-7.6-2.4-12.6-2.4-7.6,2.4-12.6,2.4-7.6-2.4-12.6-2.4-7.6,2.4-12.6,2.4-7.6-2.4-12.6-2.4-1.2,0-1.7.1v-3.3c.6,0,1.1,0,1.7,0,4.9,0,7.6,2.3,12.6,2.3s7.6-2.3,12.6-2.3,7.6,2.3,12.6,2.3,7.6-2.3,12.6-2.3,7.6,2.3,12.6,2.3,7.6-2.3,12.6-2.3,1.2,0,1.7,0v3.3h0Z"/>
        <rect class="cls-2" x="7.5" y="72.5" width="2.3" height="11.4"/>
        <path class="cls-1" d="M13.5,78.9c0-.6.5-1.8,1.9-1.8s1.6.6,1.8,1.8h-3.7M19.5,80.3c.2-2.5-1.2-4.9-4-4.9s-4.2,1.9-4.2,4.3,1.6,4.3,4.2,4.3,3.3-.8,3.9-2.8h-2c-.1.5-.9,1.1-1.8,1.1s-2-.7-2-2.1h6Z"/>
        <path class="cls-2" d="M20.5,81.2c0,2.2,2,2.9,3.9,2.9s3.8-.7,3.8-2.9-1.3-2-2.6-2.3c-1.3-.3-2.6-.4-2.6-1.2s.8-.8,1.3-.8c.8,0,1.5.2,1.6,1.1h2.2c-.2-2-1.9-2.6-3.7-2.6s-3.6.5-3.6,2.6,1.3,1.9,2.6,2.2c1.6.4,2.6.6,2.6,1.3s-.8,1.1-1.5,1.1-1.7-.4-1.8-1.4h-2.2"/>
        <rect class="cls-2" x="29.5" y="78.6" width="4.8" height="1.9"/>
        <path class="cls-1" d="M38.8,74.4h2.4c.9,0,1.7.2,1.7,1.3s-.7,1.4-1.5,1.4h-2.6v-2.7M36.3,83.9h5.6c2.1,0,4.1-1,4.1-3.3s-.7-2.5-2.1-2.9c1-.5,1.6-1.3,1.6-2.4,0-2.1-1.5-2.8-3.7-2.8h-5.4v11.4h0ZM38.8,78.8h2.8c1.1,0,1.8.5,1.8,1.6s-.9,1.5-1.9,1.5h-2.7v-3.1h0Z"/>
        <path class="cls-1" d="M49.6,78.2c0-.9.6-1.2,1.5-1.2s1.5.1,1.5,1.1-1.3.9-2.7,1.1c-1.4.2-2.8.6-2.8,2.5s1.3,2.5,2.8,2.5,2.1-.3,2.8-1c0,.3,0,.5.2.8h2.3c-.2-.3-.3-1.1-.3-1.8v-4.3c0-2-2-2.3-3.7-2.3s-3.8.6-3.9,2.8h2.3M52.6,80.7c0,.5,0,1.9-1.9,1.9s-1.4-.2-1.4-1.1.6-1.1,1.4-1.2c.7-.1,1.5-.1,1.9-.5v.8h0Z"/>
        <path class="cls-1" d="M59,74.4v-1.9h-2.3v1.9h2.3ZM56.7,75.6v8.2h2.3v-8.2h-2.3Z"/>
        <path class="cls-2" d="M60.8,83.9h2.3v-4.3c0-1.7.5-2.4,1.8-2.4s1.5.7,1.5,2v4.7h2.3v-5.1c0-2-.6-3.4-3-3.4s-2,.4-2.5,1.4h0v-1.1h-2.2v8.2"/>
        <path class="cls-2" d="M69.9,81.2c0,2.2,2,2.9,3.9,2.9s3.8-.7,3.8-2.9-1.3-2-2.6-2.3c-1.3-.3-2.6-.4-2.6-1.2s.8-.8,1.3-.8c.8,0,1.5.2,1.6,1.1h2.2c-.2-2-1.9-2.6-3.7-2.6s-3.6.5-3.6,2.6,1.3,1.9,2.6,2.2c1.6.4,2.6.6,2.6,1.3s-.8,1.1-1.5,1.1-1.7-.4-1.8-1.4h-2.2"/>
        <polyline class="cls-2" points="10.7 67.9 13.2 67.9 13.2 63.6 17.5 56.6 14.7 56.6 12 61.1 9.3 56.6 6.5 56.6 10.7 63.5 10.7 67.9"/>
        <polyline class="cls-2" points="25.1 59.7 22.8 59.7 21.1 65.3 21 65.3 19.3 59.7 16.9 59.7 19.7 67.9 22.3 67.9 25.1 59.7"/>
        <path class="cls-1" d="M28.2,62.9c0-.6.5-1.8,1.9-1.8s1.6.6,1.8,1.8h-3.7M34.2,64.4c.2-2.5-1.2-4.9-4-4.9s-4.2,1.9-4.2,4.3,1.6,4.3,4.2,4.3,3.3-.8,3.9-2.8h-2c-.1.5-.9,1.1-1.8,1.1s-2-.7-2-2.1h6Z"/>
        <path class="cls-2" d="M35.9,67.9h2.3v-3.7c0-1.4.6-2.6,2.3-2.6s.6,0,.8,0v-2.1c-.1,0-.3,0-.5,0-1.1,0-2.2.7-2.7,1.8h0v-1.5h-2.2v8.2"/>
        <path class="cls-1" d="M48.1,63.8c0,1.4-.5,2.7-2,2.7s-2-1.4-2-2.6.5-2.6,2-2.6,2,1.3,2,2.6M48.2,67.9h2.2v-11.4h-2.3v4.1h0,0c-.5-.8-1.5-1.2-2.5-1.2-2.4,0-3.7,2.1-3.7,4.3s1.2,4.4,3.7,4.4,2-.4,2.5-1.3h0v1.1h0Z"/>
        <path class="cls-1" d="M54.4,63.8c0-1.3.5-2.6,2-2.6s2,1.3,2,2.6-.5,2.6-2,2.6-2-1.3-2-2.6M52.1,63.8c0,2.6,1.7,4.3,4.3,4.3s4.3-1.7,4.3-4.3-1.7-4.3-4.3-4.3-4.3,1.7-4.3,4.3Z"/>
        <path class="cls-2" d="M62.6,67.9h2.3v-4.3c0-1.7.5-2.4,1.8-2.4s1.5.7,1.5,2v4.7h2.3v-5.1c0-2-.6-3.4-3-3.4s-2,.4-2.5,1.4h0v-1.1h-2.2v8.2"/>
        <rect class="cls-2" x="72.4" y="62.6" width="4.8" height="1.9"/>
      </g>
    </g>
  </g>
</svg>